Anton.ufo
<glyph name="quotedbl" format="1">
  <advance width="901"/>
  <unicode hex="0022"/>
  <outline>
    <contour>
      <point x="329" y="957" type="line" smooth="no"/>
      <point x="153" y="957" type="line" smooth="no"/>
      <point x="53" y="1593" type="line" smooth="no"/>
      <point x="405" y="1593" type="line" smooth="no"/>
    </contour>
    <contour>
      <point x="769" y="957" type="line" smooth="no"/>
      <point x="593" y="957" type="line" smooth="no"/>
      <point x="493" y="1593" type="line" smooth="no"/>
      <point x="845" y="1593" type="line" smooth="no"/>
    </contour>
  </outline>
</glyph>
<glyph name="parenright" format="1">
  <advance width="623"/>
  <unicode hex="0029"/>
  <outline>
    <contour>
      <point x="67" y="268" type="line" smooth="no"/>
      <point x="127" y="284"/>
      <point x="206" y="375"/>
      <point x="206" y="450" type="qcurve" smooth="yes"/>
      <point x="206" y="1233" type="line" smooth="yes"/>
      <point x="206" y="1271"/>
      <point x="204" y="1319"/>
      <point x="191" y="1378"/>
      <point x="156" y="1427"/>
      <point x="129" y="1443"/>
      <point x="90" y="1458"/>
      <point x="67" y="1462" type="qcurve" smooth="no"/>
      <point x="67" y="1729" type="line" smooth="no"/>
      <point x="316" y="1722"/>
      <point x="578" y="1434"/>
      <point x="578" y="1151" type="qcurve" smooth="yes"/>
      <point x="578" y="562" type="line" smooth="yes"/>
      <point x="578" y="444"/>
      <point x="514" y="248"/>
      <point x="412" y="119"/>
      <point x="276" y="28"/>
      <point x="138" y="-14"/>
      <point x="67" y="-17" type="qcurve" smooth="no"/>
    </contour>
  </outline>
</glyph>
<glyph name="plus" format="1">
  <advance width="700"/>
  <unicode hex="002b"/>
  <outline>
    <contour>
      <point x="26" y="509" type="line" smooth="no"/>
      <point x="26" y="741" type="line" smooth="no"/>
      <point x="234" y="741" type="line" smooth="no"/>
      <point x="234" y="949" type="line" smooth="no"/>
      <point x="466" y="949" type="line" smooth="no"/>
      <point x="466" y="741" type="line" smooth="no"/>
      <point x="674" y="741" type="line" smooth="no"/>
      <point x="674" y="509" type="line" smooth="no"/>
      <point x="466" y="509" type="line" smooth="no"/>
      <point x="466" y="301" type="line" smooth="no"/>
      <point x="234" y="301" type="line" smooth="no"/>
      <point x="234" y="509" type="line" smooth="no"/>
    </contour>
  </outline>
</glyph>
<glyph name="hyphen" format="1">
  <advance width="650"/>
  <unicode hex="002d"/>
  <outline>
    <contour>
      <point x="67" y="509" type="line" smooth="no"/>
      <point x="67" y="741" type="line" smooth="no"/>
      <point x="583" y="741" type="line" smooth="no"/>
      <point x="583" y="509" type="line" smooth="no"/>
    </contour>
  </outline>
</glyph>
<glyph name="slash" format="1">
  <advance width="812"/>
  <unicode hex="002f"/>
  <outline>
    <contour>
      <point x="382" y="0" type="line" smooth="no"/>
      <point x="19" y="0" type="line" smooth="no"/>
      <point x="429" y="1767" type="line" smooth="no"/>
      <point x="793" y="1767" type="line" smooth="no"/>
    </contour>
  </outline>
</glyph>
<glyph name="two" format="1">
  <advance width="1073"/>
  <unicode hex="0032"/>
  <outline>
    <contour>
      <point x="76" y="0" type="line" smooth="no"/>
      <point x="76" y="82" type="line" smooth="yes"/>
      <point x="76" y="156"/>
      <point x="90" y="229" type="qcurve" smooth="yes"/>
      <point x="129" y="434"/>
      <point x="301" y="669" type="qcurve" smooth="yes"/>
      <point x="360" y="748"/>
      <point x="539" y="963" type="qcurve" smooth="yes"/>
      <point x="629" y="1072"/>
      <point x="629" y="1249" type="qcurve" smooth="yes"/>
      <point x="629" y="1316"/>
      <point x="588" y="1395"/>
      <point x="534" y="1395" type="qcurve" smooth="yes"/>
      <point x="446" y="1395"/>
      <point x="446" y="1243" type="qcurve" smooth="yes"/>
      <point x="446" y="1034" type="line" smooth="no"/>
      <point x="76" y="1034" type="line" smooth="no"/>
      <point x="72" y="1139" type="line" smooth="no"/>
      <point x="72" y="1289"/>
      <point x="116" y="1496"/>
      <point x="221" y="1646"/>
      <point x="403" y="1716"/>
      <point x="539" y="1716" type="qcurve" smooth="yes"/>
      <point x="754" y="1716"/>
      <point x="1001" y="1481"/>
      <point x="1001" y="1255" type="qcurve" smooth="yes"/>
      <point x="1001" y="1130"/>
      <point x="930" y="908"/>
      <point x="812" y="730"/>
      <point x="549" y="399"/>
      <point x="509" y="322" type="qcurve" smooth="no"/>
      <point x="989" y="322" type="line" smooth="no"/>
      <point x="989" y="0" type="line" smooth="no"/>
    </contour>
  </outline>
</glyph>
<glyph name="three" format="1">
  <advance width="1057"/>
  <unicode hex="0033"/>
  <outline>
    <contour>
      <point x="512" y="-19" type="qcurve" smooth="yes"/>
      <point x="290" y="-19"/>
      <point x="67" y="208"/>
      <point x="67" y="460" type="qcurve" smooth="yes"/>
      <point x="67" y="639" type="line" smooth="no"/>
      <point x="428" y="639" type="line" smooth="no"/>
      <point x="428" y="459" type="line" smooth="yes"/>
      <point x="428" y="413"/>
      <point x="443" y="348"/>
      <point x="462" y="316"/>
      <point x="494" y="299"/>
      <point x="513" y="297"/>
      <point x="529" y="297" type="qcurve" smooth="yes"/>
      <point x="563" y="297"/>
      <point x="600" y="328"/>
      <point x="620" y="424"/>
      <point x="620" y="515" type="qcurve" smooth="yes"/>
      <point x="620" y="568"/>
      <point x="615" y="639"/>
      <point x="605" y="673"/>
      <point x="583" y="728"/>
      <point x="552" y="756"/>
      <point x="502" y="778"/>
      <point x="470" y="778" type="qcurve" smooth="yes"/>
      <point x="448" y="778"/>
      <point x="436" y="776" type="qcurve" smooth="no"/>
      <point x="436" y="1083" type="line" smooth="no"/>
      <point x="525" y="1083"/>
      <point x="623" y="1159"/>
      <point x="623" y="1253" type="qcurve" smooth="yes"/>
      <point x="623" y="1398"/>
      <point x="537" y="1398" type="qcurve" smooth="yes"/>
      <point x="513" y="1398"/>
      <point x="479" y="1385"/>
      <point x="461" y="1367"/>
      <point x="450" y="1333"/>
      <point x="447" y="1308"/>
      <point x="444" y="1262"/>
      <point x="442" y="1249" type="qcurve" smooth="no"/>
      <point x="442" y="1197" type="line" smooth="no"/>
      <point x="78" y="1197" type="line" smooth="no"/>
      <point x="76" y="1257" type="line" smooth="no"/>
      <point x="77" y="1389"/>
      <point x="145" y="1572"/>
      <point x="274" y="1671"/>
      <point x="431" y="1712"/>
      <point x="535" y="1712" type="qcurve" smooth="yes"/>
      <point x="605" y="1712"/>
      <point x="723" y="1692"/>
      <point x="846" y="1632"/>
      <point x="931" y="1534"/>
      <point x="985" y="1368"/>
      <point x="985" y="1257" type="qcurve" smooth="yes"/>
      <point x="985" y="1198"/>
      <point x="973" y="1108"/>
      <point x="940" y="1017"/>
      <point x="872" y="952"/>
      <point x="820" y="934" type="qcurve" smooth="no"/>
      <point x="871" y="910"/>
      <point x="925" y="867"/>
      <point x="972" y="778"/>
      <point x="989" y="632"/>
      <point x="989" y="515" type="qcurve" smooth="yes"/>
      <point x="989" y="256"/>
      <point x="765" y="-19"/>
    </contour>
  </outline>
</glyph>
<glyph name="nine" format="1">
  <advance width="1071"/>
  <unicode hex="0039"/>
  <outline>
    <contour>
      <point x="528" y="-18" type="qcurve" smooth="yes"/>
      <point x="401" y="-18"/>
      <point x="195" y="62"/>
      <point x="66" y="230"/>
      <point x="66" y="346" type="qcurve" smooth="yes"/>
      <point x="66" y="496" type="line" smooth="no"/>
      <point x="438" y="496" type="line" smooth="no"/>
      <point x="437" y="417" type="line" smooth="yes"/>
      <point x="437" y="414" type="line" smooth="yes"/>
      <point x="437" y="369"/>
      <point x="466" y="345" type="qcurve" smooth="yes"/>
      <point x="496" y="320"/>
      <point x="526" y="320" type="qcurve" smooth="yes"/>
      <point x="559" y="320"/>
      <point x="618" y="374"/>
      <point x="618" y="431" type="qcurve" smooth="yes"/>
      <point x="618" y="676" type="line" smooth="no"/>
      <point x="583" y="638"/>
      <point x="477" y="598"/>
      <point x="423" y="598" type="qcurve" smooth="yes"/>
      <point x="319" y="598"/>
      <point x="180" y="669"/>
      <point x="101" y="818"/>
      <point x="69" y="1019"/>
      <point x="69" y="1164" type="qcurve" smooth="yes"/>
      <point x="69" y="1262"/>
      <point x="94" y="1420"/>
      <point x="158" y="1567"/>
      <point x="262" y="1666"/>
      <point x="430" y="1725"/>
      <point x="541" y="1725" type="qcurve" smooth="yes"/>
      <point x="673" y="1725"/>
      <point x="855" y="1648"/>
      <point x="959" y="1494"/>
      <point x="1004" y="1291"/>
      <point x="1004" y="1152" type="qcurve" smooth="yes"/>
      <point x="1001" y="727" type="line" smooth="yes"/>
      <point x="1000" y="648"/>
      <point x="1000" y="566"/>
      <point x="992" y="417"/>
      <point x="976" y="334"/>
      <point x="943" y="210"/>
      <point x="897" y="140"/>
      <point x="825" y="56"/>
      <point x="732" y="12"/>
      <point x="605" y="-18"/>
    </contour>
    <contour>
      <point x="449" y="1155" type="qcurve" smooth="yes"/>
      <point x="449" y="1102"/>
      <point x="450" y="1053"/>
      <point x="455" y="982"/>
      <point x="466" y="953"/>
      <point x="486" y="919"/>
      <point x="517" y="908"/>
      <point x="539" y="908" type="qcurve" smooth="yes"/>
      <point x="629" y="908"/>
      <point x="629" y="1079" type="qcurve" smooth="yes"/>
      <point x="629" y="1240" type="line" smooth="yes"/>
      <point x="629" y="1320"/>
      <point x="592" y="1411"/>
      <point x="541" y="1411" type="qcurve" smooth="yes"/>
      <point x="501" y="1411"/>
      <point x="464" y="1370"/>
      <point x="449" y="1266"/>
    </contour>
  </outline>
</glyph>
<glyph name="colon" format="1">
  <advance width="491"/>
  <unicode hex="003a"/>
  <outline>
    <contour>
      <point x="67" y="237" type="line" smooth="no"/>
      <point x="67" y="535" type="line" smooth="no"/>
      <point x="425" y="535" type="line" smooth="no"/>
      <point x="425" y="237" type="line" smooth="no"/>
    </contour>
    <contour>
      <point x="67" y="976" type="line" smooth="no"/>
      <point x="67" y="1274" type="line" smooth="no"/>
      <point x="425" y="1274" type="line" smooth="no"/>
      <point x="425" y="976" type="line" smooth="no"/>
    </contour>
  </outline>
</glyph>
<glyph name="semicolon" format="1">
  <advance width="478"/>
  <unicode hex="003b"/>
  <outline>
    <contour>
      <point x="51" y="236" type="line" smooth="no"/>
      <point x="51" y="534" type="line" smooth="no"/>
      <point x="425" y="534" type="line" smooth="no"/>
      <point x="425" y="245" type="line" smooth="no"/>
      <point x="323" y="0" type="line" smooth="no"/>
      <point x="112" y="0" type="line" smooth="no"/>
      <point x="178" y="236" type="line" smooth="no"/>
    </contour>
    <contour>
      <point x="51" y="976" type="line" smooth="no"/>
      <point x="51" y="1274" type="line" smooth="no"/>
      <point x="409" y="1274" type="line" smooth="no"/>
      <point x="409" y="976" type="line" smooth="no"/>
    </contour>
  </outline>
</glyph>
<glyph name="less" format="1">
  <advance width="651"/>
  <unicode hex="003c"/>
  <outline>
    <contour>
      <point x="15" y="545" type="line" smooth="no"/>
      <point x="15" y="959" type="line" smooth="no"/>
      <point x="585" y="1300" type="line" smooth="no"/>
      <point x="585" y="941" type="line" smooth="no"/>
      <point x="243" y="749" type="line" smooth="no"/>
      <point x="585" y="558" type="line" smooth="no"/>
      <point x="585" y="200" type="line" smooth="no"/>
    </contour>
  </outline>
</glyph>
<glyph name="at" format="1">
  <advance width="1833"/>
  <unicode hex="0040"/>
  <outline>
    <contour>
      <point x="832" y="718" type="qcurve" smooth="yes"/>
      <point x="832" y="646"/>
      <point x="874" y="570"/>
      <point x="912" y="570" type="qcurve" smooth="yes"/>
      <point x="934" y="570"/>
      <point x="966" y="594"/>
      <point x="982" y="632"/>
      <point x="988" y="668"/>
      <point x="988" y="687" type="qcurve" smooth="yes"/>
      <point x="988" y="972" type="line" smooth="no"/>
      <point x="955" y="972"/>
      <point x="906" y="959"/>
      <point x="872" y="941"/>
      <point x="850" y="900"/>
      <point x="838" y="870"/>
      <point x="833" y="803"/>
      <point x="832" y="762"/>
    </contour>
    <contour>
      <point x="1161" y="224" type="qcurve" smooth="no"/>
      <point x="1205" y="-37" type="line" smooth="no"/>
      <point x="1018" y="-64"/>
      <point x="880" y="-64" type="qcurve" smooth="yes"/>
      <point x="456" y="-64"/>
      <point x="51" y="333"/>
      <point x="51" y="726" type="qcurve" smooth="yes"/>
      <point x="51" y="878"/>
      <point x="98" y="1127"/>
      <point x="183" y="1313"/>
      <point x="314" y="1454"/>
      <point x="472" y="1548"/>
      <point x="675" y="1606"/>
      <point x="891" y="1630"/>
      <point x="1022" y="1630" type="qcurve" smooth="yes"/>
      <point x="1186" y="1630"/>
      <point x="1451" y="1542"/>
      <point x="1624" y="1395"/>
      <point x="1741" y="1195"/>
      <point x="1791" y="982"/>
      <point x="1791" y="867" type="qcurve" smooth="yes"/>
      <point x="1791" y="577"/>
      <point x="1574" y="268"/>
      <point x="1375" y="268" type="qcurve" smooth="yes"/>
      <point x="1223" y="268"/>
      <point x="1050" y="376"/>
      <point x="1014" y="494" type="qcurve" smooth="no"/>
      <point x="954" y="326"/>
      <point x="758" y="326" type="qcurve" smooth="yes"/>
      <point x="707" y="326"/>
      <point x="618" y="368"/>
      <point x="541" y="455"/>
      <point x="497" y="613"/>
      <point x="497" y="718" type="qcurve" smooth="yes"/>
      <point x="497" y="963"/>
      <point x="658" y="1209"/>
      <point x="796" y="1209" type="qcurve" smooth="yes"/>
      <point x="901" y="1209"/>
      <point x="1009" y="1114" type="qcurve" smooth="no"/>
      <point x="1049" y="1226" type="line" smooth="no"/>
      <point x="1310" y="1226" type="line" smooth="no"/>
      <point x="1310" y="621" type="line" smooth="yes"/>
      <point x="1310" y="566"/>
      <point x="1360" y="497"/>
      <point x="1391" y="497" type="qcurve" smooth="yes"/>
      <point x="1441" y="497"/>
      <point x="1505" y="727"/>
      <point x="1505" y="888" type="qcurve" smooth="yes"/>
      <point x="1505" y="959"/>
      <point x="1479" y="1087"/>
      <point x="1411" y="1215"/>
      <point x="1307" y="1307"/>
      <point x="1135" y="1365"/>
      <point x="1025" y="1365" type="qcurve" smooth="yes"/>
      <point x="962" y="1365"/>
      <point x="869" y="1361"/>
      <point x="751" y="1347"/>
      <point x="665" y="1321"/>
      <point x="568" y="1273"/>
      <point x="499" y="1208"/>
      <point x="433" y="1110"/>
      <point x="393" y="987"/>
      <point x="368" y="822"/>
      <point x="368" y="723" type="qcurve" smooth="yes"/>
      <point x="368" y="569"/>
      <point x="434" y="364"/>
      <point x="572" y="251"/>
      <point x="753" y="206"/>
      <point x="885" y="206" type="qcurve" smooth="yes"/>
      <point x="996" y="206"/>
    </contour>
  </outline>
</glyph>
<glyph name="B" format="1">
  <advance width="1012"/>
  <unicode hex="0042"/>
  <outline>
    <contour>
      <point x="80" y="0" type="line" smooth="no"/>
      <point x="80" y="1593" type="line" smooth="no"/>
      <point x="557" y="1593" type="line" smooth="yes"/>
      <point x="744" y="1593"/>
      <point x="924" y="1428"/>
      <point x="924" y="1229" type="qcurve" smooth="yes"/>
      <point x="924" y="1212" type="line" smooth="yes"/>
      <point x="924" y="1143"/>
      <point x="917" y="1071"/>
      <point x="904" y="1030"/>
      <point x="878" y="970"/>
      <point x="840" y="932"/>
      <point x="782" y="896"/>
      <point x="744" y="887" type="qcurve" smooth="no"/>
      <point x="799" y="874"/>
      <point x="877" y="810"/>
      <point x="917" y="739"/>
      <point x="940" y="635"/>
      <point x="944" y="565"/>
      <point x="944" y="516" type="qcurve" smooth="yes"/>
      <point x="944" y="390"/>
      <point x="909" y="210"/>
      <point x="823" y="69"/>
      <point x="670" y="0"/>
      <point x="557" y="0" type="qcurve" smooth="yes"/>
    </contour>
    <contour>
      <point x="424" y="745" type="line" smooth="no"/>
      <point x="424" y="283" type="line" smooth="no"/>
      <point x="448" y="281"/>
      <point x="459" y="281" type="qcurve" smooth="yes"/>
      <point x="596" y="281"/>
      <point x="596" y="399" type="qcurve" smooth="yes"/>
      <point x="596" y="598" type="line" smooth="yes"/>
      <point x="596" y="674"/>
      <point x="545" y="745"/>
      <point x="489" y="745" type="qcurve" smooth="yes"/>
    </contour>
    <contour>
      <point x="424" y="993" type="line" smooth="no"/>
      <point x="496" y="993" type="line" smooth="yes"/>
      <point x="522" y="993"/>
      <point x="555" y="1015"/>
      <point x="569" y="1056"/>
      <point x="573" y="1089"/>
      <point x="573" y="1112" type="qcurve" smooth="yes"/>
      <point x="573" y="1270" type="line" smooth="yes"/>
      <point x="573" y="1346"/>
      <point x="498" y="1346" type="qcurve" smooth="yes"/>
      <point x="424" y="1346" type="line" smooth="no"/>
    </contour>
  </outline>
</glyph>
<glyph name="D" format="1">
  <advance width="1018"/>
  <unicode hex="0044"/>
  <outline>
    <contour>
      <point x="76" y="0" type="line" smooth="no"/>
      <point x="76" y="1593" type="line" smooth="no"/>
      <point x="561" y="1593" type="line" smooth="yes"/>
      <point x="758" y="1593"/>
      <point x="939" y="1392"/>
      <point x="940" y="1217" type="qcurve" smooth="yes"/>
      <point x="944" y="473" type="line" smooth="no"/>
      <point x="944" y="234"/>
      <point x="757" y="0"/>
      <point x="549" y="0" type="qcurve" smooth="yes"/>
    </contour>
    <contour>
      <point x="430" y="1311" type="qcurve" smooth="no"/>
      <point x="430" y="291" type="line" smooth="no"/>
      <point x="433" y="292"/>
      <point x="442" y="292" type="qcurve" smooth="yes"/>
      <point x="448" y="292"/>
      <point x="481" y="290"/>
      <point x="491" y="290" type="qcurve" smooth="yes"/>
      <point x="592" y="290"/>
      <point x="592" y="375" type="qcurve" smooth="yes"/>
      <point x="592" y="1161" type="line" smooth="yes"/>
      <point x="592" y="1248"/>
      <point x="537" y="1313"/>
      <point x="469" y="1313" type="qcurve" smooth="yes"/>
      <point x="458" y="1313"/>
    </contour>
  </outline>
</glyph>
<glyph name="J" format="1">
  <advance width="997"/>
  <unicode hex="004a"/>
  <outline>
    <contour>
      <point x="500" y="-18" type="qcurve" smooth="yes"/>
      <point x="416" y="-18"/>
      <point x="263" y="30"/>
      <point x="142" y="120"/>
      <point x="70" y="264"/>
      <point x="70" y="352" type="qcurve" smooth="yes"/>
      <point x="70" y="752" type="line" smooth="no"/>
      <point x="418" y="752" type="line" smooth="no"/>
      <point x="418" y="403" type="line" smooth="yes"/>
      <point x="418" y="360"/>
      <point x="456" y="305"/>
      <point x="496" y="305" type="qcurve" smooth="yes"/>
      <point x="576" y="305"/>
      <point x="576" y="444" type="qcurve" smooth="yes"/>
      <point x="576" y="455"/>
      <point x="575" y="490"/>
      <point x="575" y="496" type="qcurve" smooth="yes"/>
      <point x="575" y="1593" type="line" smooth="no"/>
      <point x="930" y="1593" type="line" smooth="no"/>
      <point x="930" y="399" type="line" smooth="yes"/>
      <point x="930" y="207"/>
      <point x="688" y="-18"/>
    </contour>
  </outline>
</glyph>
<glyph name="M" format="1">
  <advance width="1528"/>
  <unicode hex="004d"/>
  <outline>
    <contour>
      <point x="926" y="0" type="line" smooth="no"/>
      <point x="610" y="0" type="line" smooth="no"/>
      <point x="416" y="1149" type="line" smooth="no"/>
      <point x="416" y="0" type="line" smooth="no"/>
      <point x="78" y="0" type="line" smooth="no"/>
      <point x="78" y="1593" type="line" smooth="no"/>
      <point x="614" y="1593" type="line" smooth="no"/>
      <point x="762" y="762" type="line" smooth="no"/>
      <point x="909" y="1593" type="line" smooth="no"/>
      <point x="1450" y="1593" type="line" smooth="no"/>
      <point x="1450" y="0" type="line" smooth="no"/>
      <point x="1108" y="0" type="line" smooth="no"/>
      <point x="1108" y="1149" type="line" smooth="no"/>
    </contour>
  </outline>
</glyph>
<glyph name="P" format="1">
  <advance width="981"/>
  <unicode hex="0050"/>
  <outline>
    <contour>
      <point x="80" y="0" type="line" smooth="no"/>
      <point x="80" y="1593" type="line" smooth="no"/>
      <point x="545" y="1593" type="line" smooth="yes"/>
      <point x="637" y="1593"/>
      <point x="775" y="1545"/>
      <point x="881" y="1437"/>
      <point x="936" y="1246"/>
      <point x="936" y="1110" type="qcurve" smooth="yes"/>
      <point x="936" y="993"/>
      <point x="903" y="826"/>
      <point x="823" y="696"/>
      <point x="676" y="631"/>
      <point x="569" y="631" type="qcurve" smooth="yes"/>
      <point x="426" y="631" type="line" smooth="no"/>
      <point x="426" y="0" type="line" smooth="no"/>
    </contour>
    <contour>
      <point x="426" y="1303" type="line" smooth="no"/>
      <point x="426" y="918" type="line" smooth="no"/>
      <point x="446" y="918" type="line" smooth="yes"/>
      <point x="474" y="918"/>
      <point x="503" y="921"/>
      <point x="542" y="932"/>
      <point x="561" y="957"/>
      <point x="581" y="1000"/>
      <point x="588" y="1068"/>
      <point x="588" y="1116" type="qcurve" smooth="yes"/>
      <point x="588" y="1221"/>
      <point x="533" y="1303"/>
      <point x="465" y="1303" type="qcurve" smooth="yes"/>
    </contour>
  </outline>
</glyph>
<glyph name="Q" format="1">
  <advance width="1063"/>
  <unicode hex="0051"/>
  <outline>
    <contour>
      <point x="506" y="-18" type="qcurve" smooth="yes"/>
      <point x="392" y="-18"/>
      <point x="222" y="46"/>
      <point x="121" y="165"/>
      <point x="72" y="321"/>
      <point x="72" y="418" type="qcurve" smooth="yes"/>
      <point x="72" y="1186" type="line" smooth="yes"/>
      <point x="72" y="1385"/>
      <point x="288" y="1606"/>
      <point x="724" y="1606"/>
      <point x="940" y="1385"/>
      <point x="940" y="1186" type="qcurve" smooth="yes"/>
      <point x="940" y="418" type="line" smooth="yes"/>
      <point x="940" y="222"/>
      <point x="842" y="109" type="qcurve" smooth="no"/>
      <point x="993" y="20" type="line" smooth="no"/>
      <point x="874" y="-170" type="line" smooth="no"/>
      <point x="594" y="-8" type="line" smooth="no"/>
      <point x="526" y="-18"/>
    </contour>
    <contour>
      <point x="506" y="299" type="qcurve" smooth="yes"/>
      <point x="550" y="299"/>
      <point x="569" y="341" type="qcurve" smooth="yes"/>
      <point x="586" y="377"/>
      <point x="586" y="475" type="qcurve" smooth="yes"/>
      <point x="586" y="1110" type="line" smooth="yes"/>
      <point x="586" y="1167"/>
      <point x="584" y="1206"/>
      <point x="579" y="1223"/>
      <point x="572" y="1253"/>
      <point x="543" y="1285"/>
      <point x="519" y="1292"/>
      <point x="489" y="1292"/>
      <point x="464" y="1285"/>
      <point x="447" y="1268"/>
      <point x="434" y="1252"/>
      <point x="427" y="1223"/>
      <point x="422" y="1205"/>
      <point x="420" y="1169"/>
      <point x="420" y="1114" type="line" smooth="yes"/>
      <point x="420" y="479" type="line" smooth="yes"/>
      <point x="420" y="457"/>
      <point x="421" y="431"/>
      <point x="425" y="381"/>
      <point x="436" y="350"/>
      <point x="454" y="316"/>
      <point x="485" y="299"/>
    </contour>
  </outline>
</glyph>
<glyph name="V" format="1">
  <advance width="1028"/>
  <unicode hex="0056"/>
  <outline>
    <contour>
      <point x="756" y="0" type="line" smooth="no"/>
      <point x="276" y="0" type="line" smooth="no"/>
      <point x="59" y="1593" type="line" smooth="no"/>
      <point x="414" y="1593" type="line" smooth="no"/>
      <point x="513" y="537" type="line" smooth="no"/>
      <point x="618" y="1593" type="line" smooth="no"/>
      <point x="973" y="1593" type="line" smooth="no"/>
    </contour>
  </outline>
</glyph>
<glyph name="X" format="1">
  <advance width="1067"/>
  <unicode hex="0058"/>
  <outline>
    <contour>
      <point x="534" y="623" type="line" smooth="no"/>
      <point x="420" y="0" type="line" smooth="no"/>
      <point x="63" y="0" type="line" smooth="no"/>
      <point x="252" y="846" type="line" smooth="no"/>
      <point x="102" y="1593" type="line" smooth="no"/>
      <point x="446" y="1593" type="line" smooth="no"/>
      <point x="537" y="1049" type="line" smooth="no"/>
      <point x="618" y="1593" type="line" smooth="no"/>
      <point x="963" y="1593" type="line" smooth="no"/>
      <point x="813" y="846" type="line" smooth="no"/>
      <point x="1001" y="0" type="line" smooth="no"/>
      <point x="645" y="0" type="line" smooth="no"/>
    </contour>
  </outline>
</glyph>
<glyph name="Z" format="1">
  <advance width="954"/>
  <unicode hex="005a"/>
  <outline>
    <contour>
      <point x="70" y="0" type="line" smooth="no"/>
      <point x="70" y="303" type="line" smooth="no"/>
      <point x="492" y="1284" type="line" smooth="no"/>
      <point x="109" y="1284" type="line" smooth="no"/>
      <point x="109" y="1593" type="line" smooth="no"/>
      <point x="883" y="1593" type="line" smooth="no"/>
      <point x="883" y="1296" type="line" smooth="no"/>
      <point x="453" y="307" type="line" smooth="no"/>
      <point x="866" y="307" type="line" smooth="no"/>
      <point x="866" y="0" type="line" smooth="no"/>
    </contour>
  </outline>
</glyph>
<glyph name="bracketleft" format="1">
  <advance width="688"/>
  <unicode hex="005b"/>
  <outline>
    <contour>
      <point x="419" y="1312" type="line" smooth="no"/>
      <point x="419" y="281" type="line" smooth="no"/>
      <point x="621" y="281" type="line" smooth="no"/>
      <point x="621" y="0" type="line" smooth="no"/>
      <point x="67" y="0" type="line" smooth="no"/>
      <point x="67" y="1593" type="line" smooth="no"/>
      <point x="621" y="1593" type="line" smooth="no"/>
      <point x="621" y="1312" type="line" smooth="no"/>
    </contour>
  </outline>
</glyph>
<glyph name="backslash" format="1">
  <advance width="812"/>
  <unicode hex="005c"/>
  <outline>
    <contour>
      <point x="430" y="0" type="line" smooth="no"/>
      <point x="19" y="1767" type="line" smooth="no"/>
      <point x="383" y="1767" type="line" smooth="no"/>
      <point x="793" y="0" type="line" smooth="no"/>
    </contour>
  </outline>
</glyph>
<glyph name="d" format="1">
  <advance width="1030"/>
  <unicode hex="0064"/>
  <outline>
    <contour>
      <point x="68" y="477" type="qcurve" smooth="yes"/>
      <point x="72" y="1153" type="line" smooth="yes"/>
      <point x="72" y="1225"/>
      <point x="110" y="1354"/>
      <point x="184" y="1457"/>
      <point x="305" y="1518"/>
      <point x="381" y="1518" type="qcurve" smooth="yes"/>
      <point x="524" y="1518"/>
      <point x="598" y="1419" type="qcurve" smooth="no"/>
      <point x="598" y="1767" type="line" smooth="no"/>
      <point x="956" y="1767" type="line" smooth="no"/>
      <point x="956" y="0" type="line" smooth="no"/>
      <point x="598" y="0" type="line" smooth="no"/>
      <point x="598" y="159" type="line" smooth="no"/>
      <point x="560" y="58"/>
      <point x="447" y="-18"/>
      <point x="375" y="-18" type="qcurve" smooth="yes"/>
      <point x="323" y="-18"/>
      <point x="238" y="1"/>
      <point x="177" y="42"/>
      <point x="130" y="91"/>
      <point x="100" y="165"/>
      <point x="81" y="236"/>
      <point x="71" y="335"/>
      <point x="68" y="420"/>
    </contour>
    <contour>
      <point x="426" y="1083" type="qcurve" smooth="yes"/>
      <point x="426" y="520" type="line" smooth="yes"/>
      <point x="426" y="494" type="line" smooth="yes"/>
      <point x="426" y="460" type="line" smooth="yes"/>
      <point x="426" y="452" type="line" smooth="yes"/>
      <point x="426" y="264"/>
      <point x="512" y="264" type="qcurve" smooth="yes"/>
      <point x="528" y="264"/>
      <point x="553" y="276"/>
      <point x="571" y="301"/>
      <point x="584" y="325"/>
      <point x="592" y="367"/>
      <point x="597" y="396"/>
      <point x="598" y="445"/>
      <point x="599" y="468"/>
      <point x="598" y="515"/>
      <point x="598" y="520" type="qcurve" smooth="yes"/>
      <point x="598" y="1083" type="line" smooth="yes"/>
      <point x="598" y="1106"/>
      <point x="593" y="1150"/>
      <point x="577" y="1205"/>
      <point x="541" y="1239"/>
      <point x="514" y="1239" type="qcurve" smooth="yes"/>
      <point x="486" y="1239"/>
      <point x="448" y="1211"/>
      <point x="432" y="1160"/>
      <point x="426" y="1114"/>
    </contour>
  </outline>
</glyph>
<glyph name="h" format="1">
  <advance width="1030"/>
  <unicode hex="0068"/>
  <outline>
    <contour>
      <point x="70" y="0" type="line" smooth="no"/>
      <point x="70" y="1767" type="line" smooth="no"/>
      <point x="438" y="1767" type="line" smooth="no"/>
      <point x="438" y="1351" type="line" smooth="no"/>
      <point x="496" y="1519"/>
      <point x="657" y="1519" type="qcurve" smooth="yes"/>
      <point x="799" y="1519"/>
      <point x="965" y="1336"/>
      <point x="965" y="1155" type="qcurve" smooth="yes"/>
      <point x="965" y="0" type="line" smooth="no"/>
      <point x="606" y="0" type="line" smooth="no"/>
      <point x="606" y="1034" type="line" smooth="yes"/>
      <point x="606" y="1040"/>
      <point x="607" y="1075"/>
      <point x="607" y="1085" type="qcurve" smooth="yes"/>
      <point x="607" y="1243"/>
      <point x="518" y="1243" type="qcurve" smooth="yes"/>
      <point x="492" y="1243"/>
      <point x="438" y="1192"/>
      <point x="438" y="1135" type="qcurve" smooth="yes"/>
      <point x="438" y="0" type="line" smooth="no"/>
    </contour>
  </outline>
</glyph>
<glyph name="i" format="1">
  <advance width="487"/>
  <unicode hex="0069"/>
  <outline>
    <contour>
      <point x="65" y="0" type="line" smooth="no"/>
      <point x="65" y="1500" type="line" smooth="no"/>
      <point x="423" y="1500" type="line" smooth="no"/>
      <point x="423" y="0" type="line" smooth="no"/>
    </contour>
    <contour>
      <point x="65" y="1567" type="line" smooth="no"/>
      <point x="65" y="1769" type="line" smooth="no"/>
      <point x="423" y="1769" type="line" smooth="no"/>
      <point x="423" y="1567" type="line" smooth="no"/>
    </contour>
  </outline>
</glyph>
<glyph name="k" format="1">
  <advance width="1075"/>
  <unicode hex="006b"/>
  <outline>
    <contour>
      <point x="76" y="0" type="line" smooth="no"/>
      <point x="76" y="1769" type="line" smooth="no"/>
      <point x="430" y="1769" type="line" smooth="no"/>
      <point x="430" y="983" type="line" smooth="no"/>
      <point x="602" y="1500" type="line" smooth="no"/>
      <point x="973" y="1500" type="line" smooth="no"/>
      <point x="748" y="848" type="line" smooth="no"/>
      <point x="1034" y="0" type="line" smooth="no"/>
      <point x="653" y="0" type="line" smooth="no"/>
      <point x="430" y="707" type="line" smooth="no"/>
      <point x="430" y="0" type="line" smooth="no"/>
    </contour>
  </outline>
</glyph>
<glyph name="m" format="1">
  <advance width="1546"/>
  <unicode hex="006d"/>
  <outline>
    <contour>
      <point x="67" y="1501" type="line" smooth="no"/>
      <point x="417" y="1501" type="line" smooth="no"/>
      <point x="417" y="1326" type="line" smooth="no"/>
      <point x="430" y="1376"/>
      <point x="474" y="1449"/>
      <point x="523" y="1489"/>
      <point x="586" y="1513"/>
      <point x="638" y="1519"/>
      <point x="669" y="1519" type="qcurve" smooth="yes"/>
      <point x="715" y="1519"/>
      <point x="803" y="1493"/>
      <point x="891" y="1420"/>
      <point x="912" y="1365" type="qcurve" smooth="no"/>
      <point x="959" y="1450"/>
      <point x="1078" y="1519"/>
      <point x="1167" y="1519" type="qcurve" smooth="yes"/>
      <point x="1234" y="1519"/>
      <point x="1339" y="1485"/>
      <point x="1406" y="1420"/>
      <point x="1451" y="1343"/>
      <point x="1472" y="1241"/>
      <point x="1480" y="1151"/>
      <point x="1480" y="1096" type="qcurve" smooth="yes"/>
      <point x="1476" y="0" type="line" smooth="no"/>
      <point x="1115" y="0" type="line" smooth="no"/>
      <point x="1115" y="1102" type="line" smooth="yes"/>
      <point x="1115" y="1247"/>
      <point x="1042" y="1247" type="qcurve" smooth="yes"/>
      <point x="1014" y="1247"/>
      <point x="973" y="1212"/>
      <point x="953" y="1156"/>
      <point x="945" y="1103"/>
      <point x="945" y="1077" type="qcurve" smooth="yes"/>
      <point x="945" y="0" type="line" smooth="no"/>
      <point x="587" y="0" type="line" smooth="no"/>
      <point x="587" y="1059" type="line" smooth="yes"/>
      <point x="587" y="1110"/>
      <point x="586" y="1145"/>
      <point x="576" y="1197"/>
      <point x="565" y="1216"/>
      <point x="551" y="1234"/>
      <point x="530" y="1243"/>
      <point x="517" y="1243" type="qcurve" smooth="yes"/>
      <point x="488" y="1243"/>
      <point x="447" y="1207"/>
      <point x="426" y="1147"/>
      <point x="417" y="1089"/>
      <point x="417" y="1059" type="qcurve" smooth="yes"/>
      <point x="417" y="0" type="line" smooth="no"/>
      <point x="67" y="0" type="line" smooth="no"/>
    </contour>
  </outline>
</glyph>
<glyph name="n" format="1">
  <advance width="1012"/>
  <unicode hex="006e"/>
  <outline>
    <contour>
      <point x="67" y="0" type="line" smooth="no"/>
      <point x="67" y="1501" type="line" smooth="no"/>
      <point x="425" y="1501" type="line" smooth="no"/>
      <point x="425" y="1329" type="line" smooth="no"/>
      <point x="447" y="1426"/>
      <point x="566" y="1518"/>
      <point x="651" y="1518" type="qcurve" smooth="yes"/>
      <point x="792" y="1518"/>
      <point x="948" y="1341"/>
      <point x="948" y="1157" type="qcurve" smooth="yes"/>
      <point x="948" y="0" type="line" smooth="no"/>
      <point x="595" y="0" type="line" smooth="no"/>
      <point x="595" y="1120" type="line" smooth="yes"/>
      <point x="595" y="1167"/>
      <point x="557" y="1239"/>
      <point x="515" y="1239" type="qcurve" smooth="yes"/>
      <point x="489" y="1239"/>
      <point x="453" y="1210"/>
      <point x="436" y="1173"/>
      <point x="426" y="1113"/>
      <point x="425" y="1081"/>
      <point x="425" y="1055" type="qcurve" smooth="yes"/>
      <point x="425" y="0" type="line" smooth="no"/>
    </contour>
  </outline>
</glyph>
<glyph name="p" format="1">
  <advance width="1038"/>
  <unicode hex="0070"/>
  <outline>
    <contour>
      <point x="440" y="-186" type="line" smooth="no"/>
      <point x="76" y="-186" type="line" smooth="no"/>
      <point x="76" y="1500" type="line" smooth="no"/>
      <point x="440" y="1500" type="line" smooth="no"/>
      <point x="440" y="1419" type="line" smooth="no"/>
      <point x="521" y="1518"/>
      <point x="655" y="1518" type="qcurve" smooth="yes"/>
      <point x="727" y="1518"/>
      <point x="838" y="1472"/>
      <point x="907" y="1394"/>
      <point x="950" y="1278"/>
      <point x="967" y="1152"/>
      <point x="967" y="1075" type="qcurve" smooth="yes"/>
      <point x="967" y="526" type="line" smooth="yes"/>
      <point x="967" y="521" type="line" smooth="yes"/>
      <point x="967" y="449"/>
      <point x="965" y="374"/>
      <point x="953" y="240"/>
      <point x="930" y="166"/>
      <point x="883" y="69"/>
      <point x="816" y="19"/>
      <point x="712" y="-18"/>
      <point x="645" y="-18" type="qcurve" smooth="yes"/>
      <point x="510" y="-18"/>
      <point x="440" y="59" type="qcurve" smooth="no"/>
    </contour>
    <contour>
      <point x="440" y="1079" type="qcurve" smooth="yes"/>
      <point x="440" y="422" type="line" smooth="yes"/>
      <point x="440" y="341"/>
      <point x="479" y="262"/>
      <point x="526" y="262" type="qcurve" smooth="yes"/>
      <point x="568" y="262"/>
      <point x="604" y="343"/>
      <point x="604" y="438" type="qcurve" smooth="yes"/>
      <point x="604" y="1075" type="line" smooth="yes"/>
      <point x="604" y="1098"/>
      <point x="603" y="1118"/>
      <point x="600" y="1165"/>
      <point x="590" y="1190"/>
      <point x="573" y="1221"/>
      <point x="544" y="1235"/>
      <point x="524" y="1235" type="qcurve" smooth="yes"/>
      <point x="440" y="1235"/>
    </contour>
  </outline>
</glyph>
<glyph name="q" format="1">
  <advance width="1038"/>
  <unicode hex="0071"/>
  <outline>
    <contour>
      <point x="604" y="-186" type="line" smooth="no"/>
      <point x="604" y="90" type="line" smooth="no"/>
      <point x="565" y="37"/>
      <point x="456" y="-18"/>
      <point x="399" y="-18" type="qcurve" smooth="yes"/>
      <point x="332" y="-18"/>
      <point x="228" y="14"/>
      <point x="161" y="59"/>
      <point x="115" y="146"/>
      <point x="92" y="214"/>
      <point x="80" y="339"/>
      <point x="78" y="412"/>
      <point x="78" y="482" type="qcurve" smooth="yes"/>
      <point x="78" y="487" type="line" smooth="yes"/>
      <point x="78" y="1075" type="line" smooth="yes"/>
      <point x="78" y="1152"/>
      <point x="95" y="1278"/>
      <point x="138" y="1394"/>
      <point x="207" y="1472"/>
      <point x="317" y="1518"/>
      <point x="389" y="1518" type="qcurve" smooth="yes"/>
      <point x="524" y="1518"/>
      <point x="604" y="1419" type="qcurve" smooth="no"/>
      <point x="604" y="1500" type="line" smooth="no"/>
      <point x="969" y="1500" type="line" smooth="no"/>
      <point x="969" y="-186" type="line" smooth="no"/>
    </contour>
    <contour>
      <point x="604" y="1079" type="line" smooth="yes"/>
      <point x="604" y="1235"/>
      <point x="520" y="1235" type="qcurve" smooth="yes"/>
      <point x="500" y="1235"/>
      <point x="471" y="1221"/>
      <point x="454" y="1190"/>
      <point x="444" y="1165"/>
      <point x="441" y="1118"/>
      <point x="440" y="1098"/>
      <point x="440" y="1075" type="qcurve" smooth="yes"/>
      <point x="440" y="438" type="line" smooth="yes"/>
      <point x="440" y="343"/>
      <point x="476" y="262"/>
      <point x="518" y="262" type="qcurve" smooth="yes"/>
      <point x="566" y="262"/>
      <point x="604" y="341"/>
      <point x="604" y="422" type="qcurve" smooth="yes"/>
    </contour>
  </outline>
</glyph>
<glyph name="r" format="1">
  <advance width="920"/>
  <unicode hex="0072"/>
  <outline>
    <contour>
      <point x="67" y="0" type="line" smooth="no"/>
      <point x="67" y="1500" type="line" smooth="no"/>
      <point x="425" y="1500" type="line" smooth="no"/>
      <point x="425" y="1333" type="line" smooth="no"/>
      <point x="455" y="1436"/>
      <point x="563" y="1518"/>
      <point x="646" y="1518" type="qcurve" smooth="yes"/>
      <point x="746" y="1518"/>
      <point x="898" y="1395"/>
      <point x="898" y="1278" type="qcurve" smooth="yes"/>
      <point x="898" y="776" type="line" smooth="no"/>
      <point x="548" y="776" type="line" smooth="no"/>
      <point x="548" y="1135" type="line" smooth="yes"/>
      <point x="548" y="1162"/>
      <point x="543" y="1199"/>
      <point x="516" y="1233"/>
      <point x="491" y="1233" type="qcurve" smooth="yes"/>
      <point x="465" y="1233"/>
      <point x="425" y="1187"/>
      <point x="425" y="1147" type="qcurve" smooth="yes"/>
      <point x="425" y="0" type="line" smooth="no"/>
    </contour>
  </outline>
</glyph>
<glyph name="s" format="1">
  <advance width="996"/>
  <unicode hex="0073"/>
  <outline>
    <contour>
      <point x="569" y="1053" type="line" smooth="no"/>
      <point x="567" y="1110" type="line" smooth="yes"/>
      <point x="567" y="1130"/>
      <point x="561" y="1170"/>
      <point x="545" y="1213"/>
      <point x="513" y="1239"/>
      <point x="491" y="1239" type="qcurve" smooth="yes"/>
      <point x="454" y="1239"/>
      <point x="415" y="1197"/>
      <point x="415" y="1159" type="qcurve" smooth="yes"/>
      <point x="415" y="1079"/>
      <point x="479" y="1032" type="qcurve" smooth="yes"/>
      <point x="700" y="870" type="line" smooth="yes"/>
      <point x="766" y="821"/>
      <point x="862" y="713"/>
      <point x="911" y="624"/>
      <point x="940" y="522"/>
      <point x="946" y="458"/>
      <point x="946" y="418" type="qcurve" smooth="yes"/>
      <point x="946" y="203"/>
      <point x="703" y="-18"/>
      <point x="495" y="-18" type="qcurve" smooth="yes"/>
      <point x="51" y="-18"/>
      <point x="51" y="434" type="qcurve" smooth="no"/>
      <point x="53" y="553" type="line" smooth="no"/>
      <point x="411" y="553" type="line" smooth="no"/>
      <point x="413" y="377" type="line" smooth="yes"/>
      <point x="413" y="341"/>
      <point x="430" y="294"/>
      <point x="460" y="274"/>
      <point x="485" y="268"/>
      <point x="501" y="268" type="qcurve" smooth="yes"/>
      <point x="573" y="268"/>
      <point x="573" y="385" type="qcurve" smooth="yes"/>
      <point x="573" y="415"/>
      <point x="571" y="442"/>
      <point x="558" y="495"/>
      <point x="529" y="535"/>
      <point x="474" y="593"/>
      <point x="432" y="625" type="qcurve" smooth="yes"/>
      <point x="241" y="772" type="line" smooth="yes"/>
      <point x="179" y="820"/>
      <point x="102" y="911"/>
      <point x="67" y="1012"/>
      <point x="57" y="1093"/>
      <point x="57" y="1157" type="qcurve" smooth="yes"/>
      <point x="57" y="1272"/>
      <point x="189" y="1440"/>
      <point x="386" y="1518"/>
      <point x="501" y="1518" type="qcurve" smooth="yes"/>
      <point x="712" y="1518"/>
      <point x="937" y="1304"/>
      <point x="937" y="1081" type="qcurve" smooth="yes"/>
      <point x="937" y="1053" type="line" smooth="no"/>
    </contour>
  </outline>
</glyph>
<glyph name="x" format="1">
  <advance width="1075"/>
  <unicode hex="0078"/>
  <outline>
    <contour>
      <point x="540" y="684" type="line" smooth="no"/>
      <point x="419" y="0" type="line" smooth="no"/>
      <point x="69" y="0" type="line" smooth="no"/>
      <point x="233" y="843" type="line" smooth="no"/>
      <point x="105" y="1501" type="line" smooth="no"/>
      <point x="453" y="1501" type="line" smooth="no"/>
      <point x="541" y="989" type="line" smooth="no"/>
      <point x="629" y="1501" type="line" smooth="no"/>
      <point x="983" y="1501" type="line" smooth="no"/>
      <point x="856" y="834" type="line" smooth="no"/>
      <point x="1006" y="0" type="line" smooth="no"/>
      <point x="655" y="0" type="line" smooth="no"/>
    </contour>
  </outline>
</glyph>
<glyph name="braceleft" format="1">
  <advance width="720"/>
  <unicode hex="007b"/>
  <outline>
    <contour>
      <point x="163" y="1225" type="line" smooth="yes"/>
      <point x="163" y="1416"/>
      <point x="415" y="1616"/>
      <point x="654" y="1623" type="qcurve" smooth="no"/>
      <point x="654" y="1356" type="line" smooth="no"/>
      <point x="606" y="1353"/>
      <point x="545" y="1336"/>
      <point x="521" y="1309"/>
      <point x="515" y="1289"/>
      <point x="515" y="1272" type="qcurve" smooth="yes"/>
      <point x="515" y="1179"/>
      <point x="499" y="1041"/>
      <point x="477" y="956"/>
      <point x="425" y="879"/>
      <point x="387" y="839"/>
      <point x="345" y="802" type="qcurve" smooth="no"/>
      <point x="386" y="766"/>
      <point x="426" y="726"/>
      <point x="477" y="650"/>
      <point x="499" y="566"/>
      <point x="515" y="430"/>
      <point x="515" y="338" type="qcurve" smooth="yes"/>
      <point x="514" y="323"/>
      <point x="516" y="309"/>
      <point x="530" y="281"/>
      <point x="557" y="267"/>
      <point x="613" y="252"/>
      <point x="654" y="249" type="qcurve" smooth="no"/>
      <point x="654" y="-18" type="line" smooth="no"/>
      <point x="415" y="-11"/>
      <point x="163" y="183"/>
      <point x="163" y="370" type="qcurve" smooth="yes"/>
      <point x="163" y="387" type="line" smooth="yes"/>
      <point x="163" y="462"/>
      <point x="161" y="521"/>
      <point x="158" y="544"/>
      <point x="151" y="586"/>
      <point x="125" y="629"/>
      <point x="106" y="639"/>
      <point x="78" y="656"/>
      <point x="45" y="665"/>
      <point x="24" y="669" type="qcurve" smooth="no"/>
      <point x="24" y="936" type="line" smooth="no"/>
      <point x="51" y="941"/>
      <point x="89" y="952"/>
      <point x="120" y="974"/>
      <point x="139" y="989"/>
      <point x="153" y="1028"/>
      <point x="159" y="1054"/>
      <point x="163" y="1118"/>
      <point x="163" y="1208" type="line" smooth="yes"/>
    </contour>
  </outline>
</glyph>
<glyph name="cent" format="1">
  <advance width="1036"/>
  <unicode hex="00a2"/>
  <outline>
    <contour>
      <point x="446" y="-113" type="line" smooth="no"/>
      <point x="446" y="-13" type="line" smooth="no"/>
      <point x="375" y="-5"/>
      <point x="261" y="38"/>
      <point x="184" y="96"/>
      <point x="127" y="178"/>
      <point x="96" y="257"/>
      <point x="77" y="359"/>
      <point x="72" y="441"/>
      <point x="72" y="492" type="qcurve" smooth="yes"/>
      <point x="72" y="954" type="line" smooth="yes"/>
      <point x="72" y="1232"/>
      <point x="245" y="1494"/>
      <point x="446" y="1514" type="qcurve" smooth="no"/>
      <point x="446" y="1607" type="line" smooth="no"/>
      <point x="619" y="1607" type="line" smooth="no"/>
      <point x="619" y="1511" type="line" smooth="no"/>
      <point x="776" y="1489"/>
      <point x="965" y="1292"/>
      <point x="965" y="1135" type="qcurve" smooth="yes"/>
      <point x="965" y="879" type="line" smooth="no"/>
      <point x="600" y="879" type="line" smooth="no"/>
      <point x="600" y="1116" type="line" smooth="yes"/>
      <point x="600" y="1172"/>
      <point x="567" y="1239"/>
      <point x="520" y="1239" type="qcurve" smooth="yes"/>
      <point x="432" y="1239"/>
      <point x="432" y="1114" type="qcurve" smooth="yes"/>
      <point x="432" y="387" type="line" smooth="yes"/>
      <point x="432" y="341"/>
      <point x="472" y="264"/>
      <point x="518" y="264" type="qcurve" smooth="yes"/>
      <point x="531" y="264"/>
      <point x="556" y="274"/>
      <point x="585" y="298"/>
      <point x="602" y="351"/>
      <point x="602" y="389" type="qcurve" smooth="yes"/>
      <point x="600" y="614" type="line" smooth="no"/>
      <point x="965" y="614" type="line" smooth="no"/>
      <point x="965" y="379" type="line" smooth="yes"/>
      <point x="965" y="216"/>
      <point x="776" y="10"/>
      <point x="619" y="-12" type="qcurve" smooth="no"/>
      <point x="619" y="-113" type="line" smooth="no"/>
    </contour>
  </outline>
</glyph>
<glyph name="sterling" format="1">
  <advance width="1021"/>
  <unicode hex="00a3"/>
  <outline>
    <contour>
      <point x="51" y="673" type="line" smooth="no"/>
      <point x="51" y="905" type="line" smooth="no"/>
      <point x="186" y="905" type="line" smooth="no"/>
      <point x="172" y="964" type="line" smooth="yes"/>
      <point x="158" y="1024"/>
      <point x="131" y="1184"/>
      <point x="131" y="1224" type="qcurve" smooth="yes"/>
      <point x="131" y="1315"/>
      <point x="180" y="1453"/>
      <point x="259" y="1536"/>
      <point x="371" y="1589"/>
      <point x="483" y="1608"/>
      <point x="548" y="1608" type="qcurve" smooth="yes"/>
      <point x="609" y="1608"/>
      <point x="709" y="1589"/>
      <point x="817" y="1527"/>
      <point x="890" y="1425"/>
      <point x="937" y="1246"/>
      <point x="937" y="1125" type="qcurve" smooth="no"/>
      <point x="618" y="1125" type="line" smooth="no"/>
      <point x="618" y="1221"/>
      <point x="593" y="1312"/>
      <point x="554" y="1312" type="qcurve" smooth="yes"/>
      <point x="537" y="1312"/>
      <point x="516" y="1301"/>
      <point x="504" y="1287"/>
      <point x="499" y="1248"/>
      <point x="498" y="1219"/>
      <point x="498" y="1186" type="qcurve" smooth="yes"/>
      <point x="498" y="1173" type="line" smooth="yes"/>
      <point x="498" y="1127"/>
      <point x="554" y="905" type="qcurve" smooth="no"/>
      <point x="838" y="905" type="line" smooth="no"/>
      <point x="838" y="673" type="line" smooth="no"/>
      <point x="589" y="673" type="line" smooth="no"/>
      <point x="600" y="541" type="line" smooth="no"/>
      <point x="597" y="490"/>
      <point x="564" y="400"/>
      <point x="527" y="348"/>
      <point x="481" y="305"/>
      <point x="458" y="291" type="line" smooth="no"/>
      <point x="928" y="291" type="line" smooth="no"/>
      <point x="928" y="0" type="line" smooth="no"/>
      <point x="46" y="0" type="line" smooth="no"/>
      <point x="46" y="281" type="line" smooth="no"/>
      <point x="152" y="344"/>
      <point x="222" y="466"/>
      <point x="222" y="568" type="qcurve" smooth="yes"/>
      <point x="222" y="634"/>
      <point x="213" y="673" type="qcurve" smooth="no"/>
    </contour>
  </outline>
</glyph>
<glyph name="currency" format="1">
  <advance width="1017"/>
  <unicode hex="00a4"/>
  <outline>
    <contour>
      <point x="508" y="545" type="qcurve" smooth="yes"/>
      <point x="384" y="545"/>
      <point x="292" y="598" type="qcurve" smooth="no"/>
      <point x="203" y="509" type="line" smooth="no"/>
      <point x="54" y="659" type="line" smooth="no"/>
      <point x="145" y="750" type="line" smooth="no"/>
      <point x="92" y="848"/>
      <point x="92" y="964" type="qcurve" smooth="yes"/>
      <point x="92" y="1081"/>
      <point x="144" y="1178" type="qcurve" smooth="no"/>
      <point x="54" y="1268" type="line" smooth="no"/>
      <point x="203" y="1418" type="line" smooth="no"/>
      <point x="290" y="1330" type="line" smooth="no"/>
      <point x="387" y="1385"/>
      <point x="508" y="1385" type="qcurve" smooth="yes"/>
      <point x="628" y="1385"/>
      <point x="726" y="1331" type="qcurve" smooth="no"/>
      <point x="813" y="1418" type="line" smooth="no"/>
      <point x="963" y="1269" type="line" smooth="no"/>
      <point x="873" y="1179" type="line" smooth="no"/>
      <point x="927" y="1082"/>
      <point x="927" y="846"/>
      <point x="873" y="748" type="qcurve" smooth="no"/>
      <point x="963" y="658" type="line" smooth="no"/>
      <point x="813" y="509" type="line" smooth="no"/>
      <point x="724" y="597" type="line" smooth="no"/>
      <point x="631" y="545"/>
    </contour>
    <contour>
      <point x="508" y="1186" type="qcurve" smooth="yes"/>
      <point x="410" y="1186"/>
      <point x="300" y="1054"/>
      <point x="300" y="964" type="qcurve" smooth="yes"/>
      <point x="300" y="873"/>
      <point x="410" y="741"/>
      <point x="606" y="741"/>
      <point x="717" y="875"/>
      <point x="717" y="966" type="qcurve" smooth="yes"/>
      <point x="717" y="1059"/>
      <point x="607" y="1186"/>
    </contour>
  </outline>
</glyph>
<glyph name="yen" format="1">
  <advance width="1022"/>
  <unicode hex="00a5"/>
  <outline>
    <contour>
      <point x="204" y="475" type="line" smooth="no"/>
      <point x="204" y="699" type="line" smooth="no"/>
      <point x="296" y="699" type="line" smooth="no"/>
      <point x="61" y="1593" type="line" smooth="no"/>
      <point x="410" y="1593" type="line" smooth="no"/>
      <point x="508" y="1053" type="line" smooth="no"/>
      <point x="606" y="1593" type="line" smooth="no"/>
      <point x="954" y="1593" type="line" smooth="no"/>
      <point x="720" y="699" type="line" smooth="no"/>
      <point x="808" y="699" type="line" smooth="no"/>
      <point x="808" y="475" type="line" smooth="no"/>
      <point x="674" y="475" type="line" smooth="no"/>
      <point x="674" y="408" type="line" smooth="no"/>
      <point x="808" y="408" type="line" smooth="no"/>
      <point x="808" y="176" type="line" smooth="no"/>
      <point x="674" y="176" type="line" smooth="no"/>
      <point x="674" y="0" type="line" smooth="no"/>
      <point x="342" y="0" type="line" smooth="no"/>
      <point x="342" y="176" type="line" smooth="no"/>
      <point x="204" y="176" type="line" smooth="no"/>
      <point x="204" y="408" type="line" smooth="no"/>
      <point x="342" y="408" type="line" smooth="no"/>
      <point x="342" y="475" type="line" smooth="no"/>
    </contour>
  </outline>
</glyph>
<glyph name="brokenbar" format="1">
  <advance width="457"/>
  <unicode hex="00a6"/>
  <outline>
    <contour>
      <point x="386" y="-84" type="line" smooth="no"/>
      <point x="67" y="-84" type="line" smooth="no"/>
      <point x="67" y="676" type="line" smooth="no"/>
      <point x="386" y="676" type="line" smooth="no"/>
    </contour>
    <contour>
      <point x="386" y="923" type="line" smooth="no"/>
      <point x="67" y="923" type="line" smooth="no"/>
      <point x="67" y="1683" type="line" smooth="no"/>
      <point x="386" y="1683" type="line" smooth="no"/>
    </contour>
  </outline>
</glyph>
<glyph name="section" format="1">
  <advance width="1034"/>
  <unicode hex="00a7"/>
  <outline>
    <contour>
      <point x="607" y="324" type="qcurve" smooth="yes"/>
      <point x="607" y="339"/>
      <point x="580" y="370"/>
      <point x="523" y="403"/>
      <point x="377" y="473"/>
      <point x="349" y="488" type="qcurve" smooth="yes"/>
      <point x="237" y="545"/>
      <point x="113" y="707"/>
      <point x="113" y="795" type="qcurve" smooth="yes"/>
      <point x="113" y="927"/>
      <point x="251" y="1031" type="qcurve" smooth="no"/>
      <point x="113" y="1132"/>
      <point x="113" y="1275" type="qcurve" smooth="yes"/>
      <point x="113" y="1414"/>
      <point x="335" y="1607"/>
      <point x="519" y="1607" type="qcurve" smooth="yes"/>
      <point x="718" y="1607"/>
      <point x="928" y="1422"/>
      <point x="928" y="1221" type="qcurve" smooth="no"/>
      <point x="623" y="1221" type="line" smooth="no"/>
      <point x="619" y="1346"/>
      <point x="530" y="1346" type="qcurve" smooth="yes"/>
      <point x="486" y="1346"/>
      <point x="434" y="1300"/>
      <point x="434" y="1264" type="qcurve" smooth="yes"/>
      <point x="434" y="1249"/>
      <point x="461" y="1219"/>
      <point x="518" y="1186"/>
      <point x="662" y="1116"/>
      <point x="690" y="1101" type="qcurve" smooth="yes"/>
      <point x="802" y="1043"/>
      <point x="927" y="880"/>
      <point x="927" y="792" type="qcurve" smooth="yes"/>
      <point x="927" y="660"/>
      <point x="789" y="557" type="qcurve" smooth="no"/>
      <point x="928" y="454"/>
      <point x="928" y="313" type="qcurve" smooth="yes"/>
      <point x="928" y="174"/>
      <point x="706" y="-19"/>
      <point x="522" y="-19" type="qcurve" smooth="yes"/>
      <point x="313" y="-19"/>
      <point x="93" y="166"/>
      <point x="93" y="367" type="qcurve" smooth="no"/>
      <point x="428" y="367" type="line" smooth="no"/>
      <point x="432" y="242"/>
      <point x="521" y="242" type="qcurve" smooth="yes"/>
      <point x="561" y="242"/>
      <point x="607" y="288"/>
    </contour>
    <contour>
      <point x="611" y="681" type="qcurve" smooth="no"/>
      <point x="652" y="735"/>
      <point x="652" y="780" type="qcurve" smooth="yes"/>
      <point x="652" y="849"/>
      <point x="450" y="917" type="qcurve" smooth="no"/>
      <point x="400" y="858"/>
      <point x="400" y="813" type="qcurve" smooth="yes"/>
      <point x="400" y="776"/>
      <point x="506" y="715"/>
    </contour>
  </outline>
</glyph>
<glyph name="dieresis" format="1">
  <advance width="976"/>
  <unicode hex="00a8"/>
  <outline>
    <contour>
      <point x="67" y="1591" type="line" smooth="no"/>
      <point x="67" y="1889" type="line" smooth="no"/>
      <point x="425" y="1889" type="line" smooth="no"/>
      <point x="425" y="1591" type="line" smooth="no"/>
    </contour>
    <contour>
      <point x="551" y="1591" type="line" smooth="no"/>
      <point x="551" y="1889" type="line" smooth="no"/>
      <point x="909" y="1889" type="line" smooth="no"/>
      <point x="909" y="1591" type="line" smooth="no"/>
    </contour>
  </outline>
</glyph>
<glyph name="logicalnot" format="1">
  <advance width="858"/>
  <unicode hex="00ac"/>
  <outline>
    <contour>
      <point x="63" y="979" type="line" smooth="no"/>
      <point x="792" y="979" type="line" smooth="no"/>
      <point x="792" y="439" type="line" smooth="no"/>
      <point x="481" y="439" type="line" smooth="no"/>
      <point x="481" y="801" type="line" smooth="no"/>
      <point x="63" y="801" type="line" smooth="no"/>
    </contour>
  </outline>
</glyph>
<glyph name="registered" format="1">
  <advance width="1406"/>
  <unicode hex="00ae"/>
  <outline>
    <contour>
      <point x="46" y="1041"/>
      <point x="222" y="1343"/>
      <point x="524" y="1519"/>
      <point x="882" y="1519"/>
      <point x="1184" y="1343"/>
      <point x="1360" y="1041"/>
      <point x="1360" y="683"/>
      <point x="1184" y="381"/>
      <point x="882" y="205"/>
      <point x="524" y="205"/>
      <point x="222" y="381"/>
      <point x="46" y="683"/>
    </contour>
    <contour>
      <point x="205" y="719"/>
      <point x="339" y="476"/>
      <point x="568" y="334"/>
      <point x="838" y="334"/>
      <point x="1067" y="476"/>
      <point x="1201" y="719"/>
      <point x="1201" y="1005"/>
      <point x="1067" y="1248"/>
      <point x="838" y="1390"/>
      <point x="568" y="1390"/>
      <point x="339" y="1248"/>
      <point x="205" y="1005"/>
    </contour>
    <contour>
      <point x="671" y="818" type="qcurve" smooth="no"/>
      <point x="671" y="430" type="line" smooth="no"/>
      <point x="481" y="430" type="line" smooth="no"/>
      <point x="481" y="1282" type="line" smooth="no"/>
      <point x="770" y="1282" type="line" smooth="yes"/>
      <point x="814" y="1282"/>
      <point x="877" y="1258"/>
      <point x="914" y="1219"/>
      <point x="935" y="1154"/>
      <point x="941" y="1089"/>
      <point x="941" y="1043" type="qcurve" smooth="yes"/>
      <point x="941" y="1013"/>
      <point x="937" y="974"/>
      <point x="921" y="920"/>
      <point x="880" y="883"/>
      <point x="848" y="873" type="qcurve" smooth="no"/>
      <point x="927" y="858"/>
      <point x="927" y="751" type="qcurve" smooth="yes"/>
      <point x="927" y="430" type="line" smooth="no"/>
      <point x="743" y="430" type="line" smooth="no"/>
      <point x="743" y="762" type="line" smooth="yes"/>
      <point x="743" y="782"/>
      <point x="735" y="806"/>
      <point x="712" y="816"/>
      <point x="692" y="818"/>
    </contour>
    <contour>
      <point x="672" y="1124" type="qcurve" smooth="no"/>
      <point x="672" y="965" type="line" smooth="no"/>
      <point x="720" y="965" type="line" smooth="yes"/>
      <point x="757" y="965"/>
      <point x="757" y="1043" type="qcurve" smooth="yes"/>
      <point x="757" y="1096"/>
      <point x="724" y="1124"/>
    </contour>
  </outline>
</glyph>
<glyph name="degree" format="1">
  <advance width="804"/>
  <unicode hex="00b0"/>
  <outline>
    <contour>
      <point x="261" y="1206"/>
      <point x="334" y="1112"/>
      <point x="472" y="1112"/>
      <point x="545" y="1206"/>
      <point x="545" y="1332"/>
      <point x="472" y="1426"/>
      <point x="334" y="1426"/>
      <point x="261" y="1332"/>
    </contour>
    <contour>
      <point x="49" y="1425"/>
      <point x="238" y="1607"/>
      <point x="566" y="1607"/>
      <point x="756" y="1425"/>
      <point x="756" y="1113"/>
      <point x="566" y="931"/>
      <point x="238" y="931"/>
      <point x="49" y="1113"/>
    </contour>
  </outline>
</glyph>
<glyph name="twosuperior" format="1">
  <advance width="642"/>
  <unicode hex="00B2"/>
  <outline>
    <contour>
      <point x="59" y="631" type="line"/>
      <point x="578" y="631" type="line"/>
      <point x="578" y="814" type="line"/>
      <point x="305" y="814" type="line"/>
      <point x="393" y="984"/>
      <point x="585" y="1093"/>
      <point x="585" y="1344" type="curve" smooth="yes"/>
      <point x="585" y="1519"/>
      <point x="481" y="1606"/>
      <point x="322" y="1606" type="curve" smooth="yes"/>
      <point x="115" y="1606"/>
      <point x="57" y="1497"/>
      <point x="57" y="1278" type="curve" smooth="yes"/>
      <point x="57" y="1233"/>
      <point x="59" y="1218"/>
      <point x="59" y="1218" type="curve"/>
      <point x="269" y="1218" type="line"/>
      <point x="269" y="1337" type="line" smooth="yes"/>
      <point x="269" y="1372"/>
      <point x="276" y="1424"/>
      <point x="320" y="1424" type="curve" smooth="yes"/>
      <point x="364" y="1424"/>
      <point x="373" y="1384"/>
      <point x="373" y="1341" type="curve" smooth="yes"/>
      <point x="373" y="1249"/>
      <point x="339" y="1198"/>
      <point x="322" y="1178" type="curve" smooth="yes"/>
      <point x="187" y="1016"/>
      <point x="59" y="874"/>
      <point x="59" y="678" type="curve" smooth="yes"/>
    </contour>
  </outline>
</glyph>
<glyph name="uni00B2" format="1">
  <advance width="642"/>
  <unicode hex="00b2"/>
  <outline>
    <contour>
      <point x="59" y="631" type="line" smooth="no"/>
      <point x="59" y="678" type="line" smooth="yes"/>
      <point x="59" y="823"/>
      <point x="163" y="976" type="qcurve" smooth="yes"/>
      <point x="201" y="1032"/>
      <point x="322" y="1178" type="qcurve" smooth="yes"/>
      <point x="373" y="1238"/>
      <point x="373" y="1341" type="qcurve" smooth="yes"/>
      <point x="373" y="1424"/>
      <point x="320" y="1424" type="qcurve" smooth="yes"/>
      <point x="269" y="1424"/>
      <point x="269" y="1337" type="qcurve" smooth="yes"/>
      <point x="269" y="1218" type="line" smooth="no"/>
      <point x="59" y="1218" type="line" smooth="no"/>
      <point x="57" y="1278" type="line" smooth="no"/>
      <point x="57" y="1450"/>
      <point x="172" y="1606"/>
      <point x="322" y="1606" type="qcurve" smooth="yes"/>
      <point x="444" y="1606"/>
      <point x="585" y="1472"/>
      <point x="585" y="1344" type="qcurve" smooth="yes"/>
      <point x="585" y="1273"/>
      <point x="545" y="1147"/>
      <point x="477" y="1046"/>
      <point x="328" y="858"/>
      <point x="305" y="814" type="qcurve" smooth="no"/>
      <point x="578" y="814" type="line" smooth="no"/>
      <point x="578" y="631" type="line" smooth="no"/>
    </contour>
  </outline>
</glyph>
<glyph name="threesuperior" format="1">
  <advance width="623"/>
  <unicode hex="00B3"/>
  <outline>
    <contour>
      <point x="300" y="635" type="curve" smooth="yes"/>
      <point x="497" y="635"/>
      <point x="568" y="750"/>
      <point x="568" y="935" type="curve" smooth="yes"/>
      <point x="568" y="1112"/>
      <point x="540" y="1139"/>
      <point x="473" y="1170" type="curve"/>
      <point x="553" y="1198"/>
      <point x="565" y="1272"/>
      <point x="565" y="1351" type="curve" smooth="yes"/>
      <point x="565" y="1566"/>
      <point x="432" y="1606"/>
      <point x="313" y="1606" type="curve" smooth="yes"/>
      <point x="167" y="1606"/>
      <point x="57" y="1555"/>
      <point x="56" y="1351" type="curve" smooth="yes"/>
      <point x="56" y="1346"/>
      <point x="57" y="1317"/>
      <point x="57" y="1317" type="curve"/>
      <point x="261" y="1317" type="line"/>
      <point x="267" y="1365"/>
      <point x="246" y="1430"/>
      <point x="314" y="1430" type="curve" smooth="yes"/>
      <point x="355" y="1430"/>
      <point x="362" y="1383"/>
      <point x="362" y="1349" type="curve" smooth="yes"/>
      <point x="362" y="1274"/>
      <point x="319" y="1254"/>
      <point x="257" y="1254" type="curve"/>
      <point x="257" y="1081" type="line"/>
      <point x="264" y="1082"/>
      <point x="270" y="1082"/>
      <point x="277" y="1082" type="curve" smooth="yes"/>
      <point x="363" y="1082"/>
      <point x="361" y="983"/>
      <point x="361" y="935" type="curve" smooth="yes"/>
      <point x="361" y="831"/>
      <point x="345" y="813"/>
      <point x="310" y="813" type="curve" smooth="yes"/>
      <point x="289" y="813"/>
      <point x="253" y="813"/>
      <point x="253" y="903" type="curve" smooth="yes"/>
      <point x="253" y="959"/>
      <point x="253" y="1004"/>
      <point x="253" y="1004" type="curve"/>
      <point x="51" y="1004" type="line"/>
      <point x="51" y="904" type="line" smooth="yes"/>
      <point x="51" y="711"/>
      <point x="139" y="635"/>
    </contour>
  </outline>
</glyph>
<glyph name="mu" format="1">
  <advance width="1034"/>
  <unicode hex="00B5"/>
  <outline>
    <contour>
      <point x="598" y="1500" type="line"/>
      <point x="596" y="455" type="line" smooth="yes"/>
      <point x="596" y="385"/>
      <point x="602" y="264"/>
      <point x="512" y="264" type="curve" smooth="yes"/>
      <point x="436" y="264"/>
      <point x="432" y="317"/>
      <point x="432" y="455" type="curve" smooth="yes"/>
      <point x="432" y="1500" type="line"/>
      <point x="72" y="1500" type="line"/>
      <point x="72" y="-186" type="line"/>
      <point x="432" y="-186" type="line"/>
      <point x="432" y="-11" type="line"/>
      <point x="496" y="2"/>
      <point x="551" y="45"/>
      <point x="596" y="160" type="curve"/>
      <point x="596" y="0" type="line"/>
      <point x="954" y="0" type="line"/>
      <point x="954" y="1500" type="line"/>
    </contour>
  </outline>
</glyph>
<glyph name="uni00B5" format="1">
  <advance width="1034"/>
  <unicode hex="00b5"/>
  <outline>
    <contour>
      <point x="598" y="1500" type="line" smooth="no"/>
      <point x="954" y="1500" type="line" smooth="no"/>
      <point x="954" y="0" type="line" smooth="no"/>
      <point x="596" y="0" type="line" smooth="no"/>
      <point x="596" y="160" type="line" smooth="no"/>
      <point x="564" y="78"/>
      <point x="483" y="-1"/>
      <point x="432" y="-11" type="qcurve" smooth="no"/>
      <point x="432" y="-186" type="line" smooth="no"/>
      <point x="72" y="-186" type="line" smooth="no"/>
      <point x="72" y="1500" type="line" smooth="no"/>
      <point x="432" y="1500" type="line" smooth="no"/>
      <point x="432" y="455" type="line" smooth="yes"/>
      <point x="432" y="341"/>
      <point x="459" y="264"/>
      <point x="512" y="264" type="qcurve" smooth="yes"/>
      <point x="532" y="264"/>
      <point x="563" y="279"/>
      <point x="580" y="311"/>
      <point x="591" y="341"/>
      <point x="595" y="390"/>
      <point x="596" y="418"/>
      <point x="596" y="443" type="qcurve" smooth="yes"/>
      <point x="596" y="455" type="line" smooth="yes"/>
    </contour>
  </outline>
</glyph>
<glyph name="periodcentered" format="1">
  <advance width="491"/>
  <unicode hex="00b7"/>
  <outline>
    <contour>
      <point x="67" y="723" type="line" smooth="no"/>
      <point x="67" y="1021" type="line" smooth="no"/>
      <point x="425" y="1021" type="line" smooth="no"/>
      <point x="425" y="723" type="line" smooth="no"/>
    </contour>
  </outline>
</glyph>
<glyph name="onesuperior" format="1">
  <advance width="415"/>
  <unicode hex="00B9"/>
  <outline>
    <contour>
      <point x="190" y="1607" type="curve"/>
      <point x="190" y="1607"/>
      <point x="349" y="1607"/>
      <point x="349" y="1607" type="curve"/>
      <point x="349" y="656" type="line"/>
      <point x="139" y="656" type="line"/>
      <point x="139" y="1364" type="line"/>
      <point x="139" y="1364"/>
      <point x="80" y="1334"/>
      <point x="16" y="1334" type="curve" smooth="yes"/>
      <point x="16" y="1334"/>
      <point x="18" y="1398"/>
      <point x="18" y="1444" type="curve" smooth="yes"/>
      <point x="18" y="1466"/>
      <point x="17" y="1484"/>
      <point x="16" y="1487" type="curve"/>
      <point x="55" y="1487"/>
      <point x="190" y="1532"/>
    </contour>
  </outline>
</glyph>
<glyph name="uni00B9" format="1">
  <advance width="415"/>
  <unicode hex="00b9"/>
  <outline>
    <contour>
      <point x="190" y="1607" type="qcurve" smooth="no"/>
      <point x="349" y="1607" type="line" smooth="no"/>
      <point x="349" y="656" type="line" smooth="no"/>
      <point x="139" y="656" type="line" smooth="no"/>
      <point x="139" y="1364" type="line" smooth="no"/>
      <point x="80" y="1334"/>
      <point x="16" y="1334" type="qcurve" smooth="no"/>
      <point x="18" y="1398"/>
      <point x="18" y="1444" type="qcurve" smooth="yes"/>
      <point x="18" y="1481"/>
      <point x="16" y="1487" type="qcurve" smooth="no"/>
      <point x="58" y="1487"/>
      <point x="190" y="1558"/>
    </contour>
  </outline>
</glyph>
<glyph name="ordmasculine" format="1">
  <advance width="1036"/>
  <unicode hex="00ba"/>
  <outline>
    <contour>
      <point x="428" y="387" type="qcurve" smooth="yes"/>
      <point x="72" y="387"/>
      <point x="72" y="757" type="qcurve" smooth="yes"/>
      <point x="72" y="1235" type="line" smooth="yes"/>
      <point x="72" y="1405"/>
      <point x="168" y="1506" type="qcurve" smooth="yes"/>
      <point x="262" y="1605"/>
      <point x="425" y="1605" type="qcurve" smooth="yes"/>
      <point x="428" y="1605" type="line" smooth="yes"/>
      <point x="594" y="1605"/>
      <point x="784" y="1406"/>
      <point x="784" y="1235" type="qcurve" smooth="yes"/>
      <point x="784" y="757" type="line" smooth="yes"/>
      <point x="784" y="571"/>
      <point x="603" y="387"/>
    </contour>
    <contour>
      <point x="361" y="1384"/>
      <point x="361" y="1280" type="qcurve" smooth="yes"/>
      <point x="361" y="699" type="line" smooth="yes"/>
      <point x="361" y="651"/>
      <point x="398" y="607"/>
      <point x="457" y="608"/>
      <point x="494" y="651"/>
      <point x="494" y="699" type="qcurve" smooth="yes"/>
      <point x="494" y="1280" type="line" smooth="yes"/>
      <point x="494" y="1384"/>
    </contour>
  </outline>
</glyph>
<glyph name="questiondown" format="1">
  <advance width="1007"/>
  <unicode hex="00bf"/>
  <outline>
    <contour>
      <point x="522" y="-17" type="qcurve" smooth="yes"/>
      <point x="436" y="-17"/>
      <point x="297" y="15"/>
      <point x="200" y="69"/>
      <point x="128" y="152"/>
      <point x="86" y="242"/>
      <point x="61" y="359"/>
      <point x="52" y="467"/>
      <point x="52" y="533" type="qcurve" smooth="yes"/>
      <point x="52" y="654"/>
      <point x="110" y="852"/>
      <point x="230" y="1008"/>
      <point x="433" y="1094"/>
      <point x="570" y="1094" type="qcurve" smooth="no"/>
      <point x="570" y="1264" type="line" smooth="no"/>
      <point x="903" y="1264" type="line" smooth="no"/>
      <point x="903" y="848" type="line" smooth="no"/>
      <point x="820" y="848"/>
      <point x="694" y="840"/>
      <point x="595" y="818"/>
      <point x="527" y="791"/>
      <point x="478" y="741"/>
      <point x="450" y="690"/>
      <point x="434" y="606"/>
      <point x="429" y="526"/>
      <point x="429" y="465" type="qcurve" smooth="yes"/>
      <point x="429" y="389"/>
      <point x="468" y="302"/>
      <point x="522" y="302" type="qcurve" smooth="yes"/>
      <point x="536" y="302"/>
      <point x="556" y="305"/>
      <point x="585" y="326"/>
      <point x="603" y="363"/>
      <point x="616" y="436"/>
      <point x="616" y="488" type="qcurve" smooth="yes"/>
      <point x="616" y="634" type="line" smooth="no"/>
      <point x="982" y="634" type="line" smooth="no"/>
      <point x="982" y="380" type="line" smooth="yes"/>
      <point x="982" y="182"/>
      <point x="731" y="-17"/>
    </contour>
    <contour>
      <point x="914" y="1672" type="line" smooth="no"/>
      <point x="914" y="1374" type="line" smooth="no"/>
      <point x="556" y="1374" type="line" smooth="no"/>
      <point x="556" y="1672" type="line" smooth="no"/>
    </contour>
  </outline>
</glyph>
<glyph name="Agrave" format="1">
  <advance width="1051"/>
  <unicode hex="00c0"/>
  <outline>
    <contour>
      <point x="801" y="1593" type="line" smooth="no"/>
      <point x="977" y="0" type="line" smooth="no"/>
      <point x="637" y="0" type="line" smooth="no"/>
      <point x="612" y="240" type="line" smooth="no"/>
      <point x="434" y="240" type="line" smooth="no"/>
      <point x="412" y="0" type="line" smooth="no"/>
      <point x="70" y="0" type="line" smooth="no"/>
      <point x="250" y="1593" type="line" smooth="no"/>
    </contour>
    <contour>
      <point x="538" y="1294" type="line" smooth="no"/>
      <point x="506" y="1294" type="line" smooth="no"/>
      <point x="459" y="530" type="line" smooth="no"/>
      <point x="585" y="530" type="line" smooth="no"/>
    </contour>
    <contour>
      <point x="746" y="1645" type="line" smooth="no"/>
      <point x="271" y="1739" type="line" smooth="no"/>
      <point x="271" y="2086" type="line" smooth="no"/>
      <point x="746" y="1868" type="line" smooth="no"/>
    </contour>
  </outline>
</glyph>
<glyph name="Acircumflex" format="1">
  <advance width="1051"/>
  <unicode hex="00c2"/>
  <outline>
    <contour>
      <point x="801" y="1593" type="line" smooth="no"/>
      <point x="977" y="0" type="line" smooth="no"/>
      <point x="637" y="0" type="line" smooth="no"/>
      <point x="612" y="240" type="line" smooth="no"/>
      <point x="434" y="240" type="line" smooth="no"/>
      <point x="412" y="0" type="line" smooth="no"/>
      <point x="70" y="0" type="line" smooth="no"/>
      <point x="250" y="1593" type="line" smooth="no"/>
    </contour>
    <contour>
      <point x="538" y="1294" type="line" smooth="no"/>
      <point x="506" y="1294" type="line" smooth="no"/>
      <point x="459" y="530" type="line" smooth="no"/>
      <point x="585" y="530" type="line" smooth="no"/>
    </contour>
    <contour>
      <point x="729" y="2086" type="line" smooth="no"/>
      <point x="970" y="1683" type="line" smooth="no"/>
      <point x="611" y="1683" type="line" smooth="no"/>
      <point x="525" y="1968" type="line" smooth="no"/>
      <point x="439" y="1683" type="line" smooth="no"/>
      <point x="80" y="1683" type="line" smooth="no"/>
      <point x="321" y="2086" type="line" smooth="no"/>
    </contour>
  </outline>
</glyph>
<glyph name="Eacute" format="1">
  <advance width="872"/>
  <unicode hex="00c9"/>
  <outline>
    <contour>
      <point x="72" y="0" type="line" smooth="no"/>
      <point x="72" y="1593" type="line" smooth="no"/>
      <point x="776" y="1593" type="line" smooth="no"/>
      <point x="776" y="1284" type="line" smooth="no"/>
      <point x="430" y="1284" type="line" smooth="no"/>
      <point x="430" y="973" type="line" smooth="no"/>
      <point x="762" y="973" type="line" smooth="no"/>
      <point x="762" y="674" type="line" smooth="no"/>
      <point x="430" y="674" type="line" smooth="no"/>
      <point x="430" y="311" type="line" smooth="no"/>
      <point x="799" y="311" type="line" smooth="no"/>
      <point x="799" y="0" type="line" smooth="no"/>
    </contour>
    <contour>
      <point x="172" y="1645" type="line" smooth="no"/>
      <point x="172" y="1868" type="line" smooth="no"/>
      <point x="647" y="2086" type="line" smooth="no"/>
      <point x="647" y="1739" type="line" smooth="no"/>
    </contour>
  </outline>
</glyph>
<glyph name="Icircumflex" format="1">
  <advance width="498"/>
  <unicode hex="00ce"/>
  <outline>
    <contour>
      <point x="76" y="0" type="line" smooth="no"/>
      <point x="76" y="1593" type="line" smooth="no"/>
      <point x="416" y="1593" type="line" smooth="no"/>
      <point x="416" y="0" type="line" smooth="no"/>
    </contour>
    <contour>
      <point x="453" y="2086" type="line" smooth="no"/>
      <point x="694" y="1683" type="line" smooth="no"/>
      <point x="335" y="1683" type="line" smooth="no"/>
      <point x="249" y="1968" type="line" smooth="no"/>
      <point x="163" y="1683" type="line" smooth="no"/>
      <point x="-196" y="1683" type="line" smooth="no"/>
      <point x="45" y="2086" type="line" smooth="no"/>
    </contour>
  </outline>
</glyph>
<glyph name="Idieresis" format="1">
  <advance width="498"/>
  <unicode hex="00cf"/>
  <outline>
    <contour>
      <point x="76" y="0" type="line" smooth="no"/>
      <point x="76" y="1593" type="line" smooth="no"/>
      <point x="416" y="1593" type="line" smooth="no"/>
      <point x="416" y="0" type="line" smooth="no"/>
    </contour>
    <contour>
      <point x="-172" y="1683" type="line" smooth="no"/>
      <point x="-172" y="1981" type="line" smooth="no"/>
      <point x="186" y="1981" type="line" smooth="no"/>
      <point x="186" y="1683" type="line" smooth="no"/>
    </contour>
    <contour>
      <point x="312" y="1683" type="line" smooth="no"/>
      <point x="312" y="1981" type="line" smooth="no"/>
      <point x="670" y="1981" type="line" smooth="no"/>
      <point x="670" y="1683" type="line" smooth="no"/>
    </contour>
  </outline>
</glyph>
<glyph name="Ocircumflex" format="1">
  <advance width="1004"/>
  <unicode hex="00d4"/>
  <outline>
    <contour>
      <point x="392" y="-18"/>
      <point x="221" y="50"/>
      <point x="121" y="174"/>
      <point x="72" y="333"/>
      <point x="72" y="430" type="qcurve" smooth="yes"/>
      <point x="72" y="1189" type="line" smooth="yes"/>
      <point x="72" y="1388"/>
      <point x="287" y="1607"/>
      <point x="725" y="1607"/>
      <point x="940" y="1388"/>
      <point x="940" y="1189" type="qcurve" smooth="yes"/>
      <point x="940" y="430" type="line" smooth="yes"/>
      <point x="940" y="333"/>
      <point x="891" y="174"/>
      <point x="791" y="50"/>
      <point x="620" y="-18"/>
    </contour>
    <contour>
      <point x="506" y="297" type="qcurve" smooth="yes"/>
      <point x="525" y="297"/>
      <point x="554" y="312"/>
      <point x="571" y="343"/>
      <point x="581" y="371"/>
      <point x="585" y="418"/>
      <point x="586" y="443"/>
      <point x="586" y="465" type="qcurve" smooth="yes"/>
      <point x="586" y="473" type="line" smooth="yes"/>
      <point x="586" y="1113" type="line" smooth="yes"/>
      <point x="586" y="1119"/>
      <point x="587" y="1155"/>
      <point x="586" y="1173"/>
      <point x="585" y="1208"/>
      <point x="573" y="1256"/>
      <point x="561" y="1271"/>
      <point x="545" y="1288"/>
      <point x="521" y="1295"/>
      <point x="506" y="1295" type="qcurve" smooth="yes"/>
      <point x="485" y="1295"/>
      <point x="454" y="1281"/>
      <point x="436" y="1250"/>
      <point x="424" y="1225"/>
      <point x="420" y="1176"/>
      <point x="420" y="1130" type="line" smooth="yes"/>
      <point x="420" y="1117" type="line" smooth="yes"/>
      <point x="420" y="477" type="line" smooth="yes"/>
      <point x="420" y="455"/>
      <point x="421" y="429"/>
      <point x="425" y="379"/>
      <point x="436" y="348"/>
      <point x="454" y="314"/>
      <point x="485" y="297"/>
    </contour>
    <contour>
      <point x="706" y="2086" type="line" smooth="no"/>
      <point x="947" y="1683" type="line" smooth="no"/>
      <point x="588" y="1683" type="line" smooth="no"/>
      <point x="502" y="1968" type="line" smooth="no"/>
      <point x="416" y="1683" type="line" smooth="no"/>
      <point x="57" y="1683" type="line" smooth="no"/>
      <point x="298" y="2086" type="line" smooth="no"/>
    </contour>
  </outline>
</glyph>
<glyph name="Otilde" format="1">
  <advance width="1004"/>
  <unicode hex="00d5"/>
  <outline>
    <contour>
      <point x="392" y="-18"/>
      <point x="221" y="50"/>
      <point x="121" y="174"/>
      <point x="72" y="333"/>
      <point x="72" y="430" type="qcurve" smooth="yes"/>
      <point x="72" y="1189" type="line" smooth="yes"/>
      <point x="72" y="1388"/>
      <point x="287" y="1607"/>
      <point x="725" y="1607"/>
      <point x="940" y="1388"/>
      <point x="940" y="1189" type="qcurve" smooth="yes"/>
      <point x="940" y="430" type="line" smooth="yes"/>
      <point x="940" y="333"/>
      <point x="891" y="174"/>
      <point x="791" y="50"/>
      <point x="620" y="-18"/>
    </contour>
    <contour>
      <point x="506" y="297" type="qcurve" smooth="yes"/>
      <point x="525" y="297"/>
      <point x="554" y="312"/>
      <point x="571" y="343"/>
      <point x="581" y="371"/>
      <point x="585" y="418"/>
      <point x="586" y="443"/>
      <point x="586" y="465" type="qcurve" smooth="yes"/>
      <point x="586" y="473" type="line" smooth="yes"/>
      <point x="586" y="1113" type="line" smooth="yes"/>
      <point x="586" y="1119"/>
      <point x="587" y="1155"/>
      <point x="586" y="1173"/>
      <point x="585" y="1208"/>
      <point x="573" y="1256"/>
      <point x="561" y="1271"/>
      <point x="545" y="1288"/>
      <point x="521" y="1295"/>
      <point x="506" y="1295" type="qcurve" smooth="yes"/>
      <point x="485" y="1295"/>
      <point x="454" y="1281"/>
      <point x="436" y="1250"/>
      <point x="424" y="1225"/>
      <point x="420" y="1176"/>
      <point x="420" y="1130" type="line" smooth="yes"/>
      <point x="420" y="1117" type="line" smooth="yes"/>
      <point x="420" y="477" type="line" smooth="yes"/>
      <point x="420" y="455"/>
      <point x="421" y="429"/>
      <point x="425" y="379"/>
      <point x="436" y="348"/>
      <point x="454" y="314"/>
      <point x="485" y="297"/>
    </contour>
    <contour>
      <point x="365" y="1804" type="qcurve" smooth="yes"/>
      <point x="333" y="1804"/>
      <point x="307" y="1715" type="qcurve" smooth="no"/>
      <point x="85" y="1821" type="line" smooth="no"/>
      <point x="138" y="1951"/>
      <point x="273" y="2080"/>
      <point x="365" y="2080" type="qcurve" smooth="yes"/>
      <point x="403" y="2080"/>
      <point x="575" y="1972"/>
      <point x="641" y="1972"/>
      <point x="667" y="2051" type="qcurve" smooth="no"/>
      <point x="899" y="1995" type="line" smooth="no"/>
      <point x="844" y="1845"/>
      <point x="702" y="1694"/>
      <point x="607" y="1694" type="qcurve" smooth="yes"/>
      <point x="572" y="1694"/>
      <point x="500" y="1728"/>
      <point x="451" y="1770"/>
      <point x="390" y="1804"/>
    </contour>
  </outline>
</glyph>
<glyph name="Odieresis" format="1">
  <advance width="1004"/>
  <unicode hex="00d6"/>
  <outline>
    <contour>
      <point x="392" y="-18"/>
      <point x="221" y="50"/>
      <point x="121" y="174"/>
      <point x="72" y="333"/>
      <point x="72" y="430" type="qcurve" smooth="yes"/>
      <point x="72" y="1189" type="line" smooth="yes"/>
      <point x="72" y="1388"/>
      <point x="287" y="1607"/>
      <point x="725" y="1607"/>
      <point x="940" y="1388"/>
      <point x="940" y="1189" type="qcurve" smooth="yes"/>
      <point x="940" y="430" type="line" smooth="yes"/>
      <point x="940" y="333"/>
      <point x="891" y="174"/>
      <point x="791" y="50"/>
      <point x="620" y="-18"/>
    </contour>
    <contour>
      <point x="506" y="297" type="qcurve" smooth="yes"/>
      <point x="525" y="297"/>
      <point x="554" y="312"/>
      <point x="571" y="343"/>
      <point x="581" y="371"/>
      <point x="585" y="418"/>
      <point x="586" y="443"/>
      <point x="586" y="465" type="qcurve" smooth="yes"/>
      <point x="586" y="473" type="line" smooth="yes"/>
      <point x="586" y="1113" type="line" smooth="yes"/>
      <point x="586" y="1119"/>
      <point x="587" y="1155"/>
      <point x="586" y="1173"/>
      <point x="585" y="1208"/>
      <point x="573" y="1256"/>
      <point x="561" y="1271"/>
      <point x="545" y="1288"/>
      <point x="521" y="1295"/>
      <point x="506" y="1295" type="qcurve" smooth="yes"/>
      <point x="485" y="1295"/>
      <point x="454" y="1281"/>
      <point x="436" y="1250"/>
      <point x="424" y="1225"/>
      <point x="420" y="1176"/>
      <point x="420" y="1130" type="line" smooth="yes"/>
      <point x="420" y="1117" type="line" smooth="yes"/>
      <point x="420" y="477" type="line" smooth="yes"/>
      <point x="420" y="455"/>
      <point x="421" y="429"/>
      <point x="425" y="379"/>
      <point x="436" y="348"/>
      <point x="454" y="314"/>
      <point x="485" y="297"/>
    </contour>
    <contour>
      <point x="81" y="1683" type="line" smooth="no"/>
      <point x="81" y="1981" type="line" smooth="no"/>
      <point x="439" y="1981" type="line" smooth="no"/>
      <point x="439" y="1683" type="line" smooth="no"/>
    </contour>
    <contour>
      <point x="565" y="1683" type="line" smooth="no"/>
      <point x="565" y="1981" type="line" smooth="no"/>
      <point x="923" y="1981" type="line" smooth="no"/>
      <point x="923" y="1683" type="line" smooth="no"/>
    </contour>
  </outline>
</glyph>
<glyph name="Oslash" format="1">
  <advance width="1004"/>
  <unicode hex="00d8"/>
  <outline>
    <contour>
      <point x="506" y="-18" type="qcurve" smooth="yes"/>
      <point x="422" y="-18"/>
      <point x="351" y="1" type="qcurve" smooth="no"/>
      <point x="317" y="-120" type="line" smooth="no"/>
      <point x="217" y="-92" type="line" smooth="no"/>
      <point x="254" y="42" type="line" smooth="no"/>
      <point x="72" y="151"/>
      <point x="72" y="430" type="qcurve" smooth="yes"/>
      <point x="72" y="1189" type="line" smooth="yes"/>
      <point x="72" y="1388"/>
      <point x="287" y="1607"/>
      <point x="506" y="1607" type="qcurve" smooth="yes"/>
      <point x="604" y="1607"/>
      <point x="682" y="1584" type="qcurve" smooth="no"/>
      <point x="714" y="1699" type="line" smooth="no"/>
      <point x="815" y="1671" type="line" smooth="no"/>
      <point x="778" y="1540" type="line" smooth="no"/>
      <point x="940" y="1437"/>
      <point x="940" y="1189" type="qcurve" smooth="yes"/>
      <point x="940" y="430" type="line" smooth="yes"/>
      <point x="940" y="333"/>
      <point x="891" y="174"/>
      <point x="791" y="50"/>
      <point x="620" y="-18"/>
    </contour>
    <contour>
      <point x="506" y="1295" type="qcurve" smooth="yes"/>
      <point x="485" y="1295"/>
      <point x="454" y="1281"/>
      <point x="436" y="1250"/>
      <point x="424" y="1225"/>
      <point x="420" y="1176"/>
      <point x="420" y="1130" type="line" smooth="yes"/>
      <point x="420" y="1117" type="line" smooth="yes"/>
      <point x="420" y="639" type="line" smooth="no"/>
      <point x="582" y="1222" type="line" smooth="no"/>
      <point x="568" y="1295"/>
    </contour>
    <contour>
      <point x="506" y="297" type="qcurve" smooth="yes"/>
      <point x="525" y="297"/>
      <point x="554" y="312"/>
      <point x="571" y="343"/>
      <point x="581" y="371"/>
      <point x="585" y="418"/>
      <point x="586" y="443"/>
      <point x="586" y="465" type="qcurve" smooth="yes"/>
      <point x="586" y="473" type="line" smooth="yes"/>
      <point x="586" y="846" type="line" smooth="no"/>
      <point x="443" y="333" type="line" smooth="no"/>
      <point x="464" y="297"/>
    </contour>
  </outline>
</glyph>
<glyph name="Thorn" format="1">
  <advance width="942"/>
  <unicode hex="00DE"/>
  <outline>
    <contour>
      <point x="67" y="0" type="line"/>
      <point x="413" y="0" type="line"/>
      <point x="413" y="336" type="line"/>
      <point x="556" y="336" type="line" smooth="yes"/>
      <point x="849" y="336"/>
      <point x="923" y="544"/>
      <point x="923" y="875" type="curve" smooth="yes"/>
      <point x="923" y="1294"/>
      <point x="767" y="1418"/>
      <point x="532" y="1418" type="curve" smooth="yes"/>
      <point x="412" y="1418" type="line"/>
      <point x="412" y="1593" type="line"/>
      <point x="67" y="1593" type="line"/>
    </contour>
    <contour>
      <point x="413" y="1128" type="line"/>
      <point x="452" y="1128" type="line" smooth="yes"/>
      <point x="542" y="1128"/>
      <point x="575" y="1070"/>
      <point x="575" y="881" type="curve" smooth="yes"/>
      <point x="575" y="627"/>
      <point x="524" y="623"/>
      <point x="433" y="623" type="curve" smooth="yes"/>
      <point x="413" y="623" type="line"/>
    </contour>
  </outline>
</glyph>
<glyph name="Thorn" format="1">
  <advance width="942"/>
  <unicode hex="00de"/>
  <outline>
    <contour>
      <point x="67" y="0" type="line" smooth="no"/>
      <point x="67" y="1593" type="line" smooth="no"/>
      <point x="412" y="1593" type="line" smooth="no"/>
      <point x="412" y="1418" type="line" smooth="no"/>
      <point x="532" y="1418" type="line" smooth="yes"/>
      <point x="624" y="1418"/>
      <point x="762" y="1365"/>
      <point x="868" y="1244"/>
      <point x="923" y="1028"/>
      <point x="923" y="875" type="qcurve" smooth="yes"/>
      <point x="923" y="771"/>
      <point x="903" y="612"/>
      <point x="853" y="474"/>
      <point x="771" y="386"/>
      <point x="642" y="336"/>
      <point x="556" y="336" type="qcurve" smooth="yes"/>
      <point x="413" y="336" type="line" smooth="no"/>
      <point x="413" y="0" type="line" smooth="no"/>
    </contour>
    <contour>
      <point x="413" y="1128" type="line" smooth="no"/>
      <point x="413" y="623" type="line" smooth="no"/>
      <point x="433" y="623" type="line" smooth="yes"/>
      <point x="467" y="623"/>
      <point x="500" y="628"/>
      <point x="543" y="654"/>
      <point x="561" y="707"/>
      <point x="575" y="806"/>
      <point x="575" y="881" type="qcurve" smooth="yes"/>
      <point x="575" y="1021"/>
      <point x="520" y="1128"/>
      <point x="452" y="1128" type="qcurve" smooth="yes"/>
    </contour>
  </outline>
</glyph>
<glyph name="ae" format="1">
  <advance width="1524"/>
  <unicode hex="00e6"/>
  <outline>
    <contour>
      <point x="1054" y="-18" type="qcurve" smooth="yes"/>
      <point x="993" y="-18"/>
      <point x="888" y="18"/>
      <point x="828" y="62"/>
      <point x="781" y="119"/>
      <point x="769" y="141"/>
      <point x="766" y="148" type="qcurve" smooth="no"/>
      <point x="758" y="131" type="line" smooth="yes"/>
      <point x="750" y="114"/>
      <point x="727" y="90" type="qcurve" smooth="yes"/>
      <point x="705" y="66"/>
      <point x="641" y="16"/>
      <point x="532" y="-18"/>
      <point x="467" y="-18" type="qcurve" smooth="yes"/>
      <point x="417" y="-18"/>
      <point x="319" y="1"/>
      <point x="202" y="60"/>
      <point x="115" y="154"/>
      <point x="56" y="321"/>
      <point x="56" y="430" type="qcurve" smooth="yes"/>
      <point x="56" y="630"/>
      <point x="115" y="729" type="qcurve" smooth="yes"/>
      <point x="166" y="815"/>
      <point x="292" y="874" type="qcurve" smooth="yes"/>
      <point x="356" y="904"/>
      <point x="578" y="980" type="qcurve" smooth="yes"/>
      <point x="578" y="983" type="line" smooth="yes"/>
      <point x="578" y="1015"/>
      <point x="577" y="1055"/>
      <point x="576" y="1105"/>
      <point x="574" y="1135"/>
      <point x="570" y="1171"/>
      <point x="565" y="1190"/>
      <point x="556" y="1213"/>
      <point x="545" y="1225"/>
      <point x="531" y="1235"/>
      <point x="512" y="1239"/>
      <point x="501" y="1239" type="qcurve" smooth="yes"/>
      <point x="427" y="1239"/>
      <point x="427" y="1157" type="qcurve" smooth="yes"/>
      <point x="427" y="1056" type="line" smooth="no"/>
      <point x="79" y="1056" type="line" smooth="no"/>
      <point x="78" y="1073"/>
      <point x="78" y="1105" type="qcurve" smooth="yes"/>
      <point x="78" y="1319"/>
      <point x="281" y="1518"/>
      <point x="519" y="1518" type="qcurve" smooth="yes"/>
      <point x="683" y="1518"/>
      <point x="765" y="1396" type="qcurve" smooth="no"/>
      <point x="845" y="1518"/>
      <point x="1032" y="1518" type="qcurve" smooth="yes"/>
      <point x="1464" y="1518"/>
      <point x="1464" y="1092" type="qcurve" smooth="yes"/>
      <point x="1464" y="983" type="line" smooth="yes"/>
      <point x="1464" y="780"/>
      <point x="1460" y="704" type="qcurve" smooth="no"/>
      <point x="939" y="704" type="line" smooth="no"/>
      <point x="939" y="494" type="line" smooth="yes"/>
      <point x="939" y="260"/>
      <point x="1026" y="260" type="qcurve" smooth="yes"/>
      <point x="1045" y="260"/>
      <point x="1075" y="279"/>
      <point x="1093" y="317"/>
      <point x="1104" y="356"/>
      <point x="1109" y="414"/>
      <point x="1110" y="454"/>
      <point x="1110" y="483" type="qcurve" smooth="yes"/>
      <point x="1110" y="571"/>
      <point x="1108" y="579" type="qcurve" smooth="no"/>
      <point x="1464" y="579" type="line" smooth="no"/>
      <point x="1464" y="494" type="line" smooth="yes"/>
      <point x="1464" y="395"/>
      <point x="1444" y="246"/>
      <point x="1389" y="113"/>
      <point x="1298" y="30"/>
      <point x="1153" y="-18"/>
    </contour>
    <contour>
      <point x="421" y="570" type="qcurve" smooth="yes"/>
      <point x="421" y="395" type="line" smooth="yes"/>
      <point x="421" y="262"/>
      <point x="501" y="262" type="qcurve" smooth="yes"/>
      <point x="523" y="262"/>
      <point x="555" y="286"/>
      <point x="571" y="324"/>
      <point x="577" y="360"/>
      <point x="577" y="379" type="qcurve" smooth="yes"/>
      <point x="577" y="774" type="line" smooth="no"/>
      <point x="485" y="737"/>
      <point x="421" y="638"/>
    </contour>
    <contour>
      <point x="1028" y="1249" type="qcurve" smooth="yes"/>
      <point x="977" y="1249"/>
      <point x="939" y="1169"/>
      <point x="939" y="1052" type="qcurve" smooth="yes"/>
      <point x="939" y="931" type="line" smooth="no"/>
      <point x="1108" y="931" type="line" smooth="no"/>
      <point x="1108" y="1087" type="line" smooth="yes"/>
      <point x="1108" y="1249"/>
    </contour>
  </outline>
</glyph>
<glyph name="edieresis" format="1">
  <advance width="996"/>
  <unicode hex="00eb"/>
  <outline>
    <contour>
      <point x="490" y="-18" type="qcurve" smooth="yes"/>
      <point x="410" y="-18"/>
      <point x="280" y="15"/>
      <point x="191" y="68"/>
      <point x="126" y="149"/>
      <point x="88" y="233"/>
      <point x="65" y="341"/>
      <point x="58" y="433"/>
      <point x="58" y="489" type="qcurve" smooth="yes"/>
      <point x="58" y="1092" type="line" smooth="yes"/>
      <point x="58" y="1299"/>
      <point x="295" y="1518"/>
      <point x="508" y="1518" type="qcurve" smooth="yes"/>
      <point x="940" y="1518"/>
      <point x="940" y="1092" type="qcurve" smooth="yes"/>
      <point x="940" y="983" type="line" smooth="yes"/>
      <point x="940" y="780"/>
      <point x="936" y="704" type="qcurve" smooth="no"/>
      <point x="416" y="704" type="line" smooth="no"/>
      <point x="416" y="494" type="line" smooth="yes"/>
      <point x="416" y="484"/>
      <point x="415" y="439"/>
      <point x="415" y="427" type="qcurve" smooth="yes"/>
      <point x="415" y="391"/>
      <point x="421" y="340"/>
      <point x="437" y="287"/>
      <point x="474" y="260"/>
      <point x="502" y="260" type="qcurve" smooth="yes"/>
      <point x="531" y="260"/>
      <point x="567" y="301"/>
      <point x="582" y="378"/>
      <point x="586" y="438"/>
      <point x="586" y="483" type="qcurve" smooth="yes"/>
      <point x="586" y="571"/>
      <point x="584" y="579" type="qcurve" smooth="no"/>
      <point x="940" y="579" type="line" smooth="no"/>
      <point x="940" y="494" type="line" smooth="yes"/>
      <point x="940" y="369"/>
      <point x="902" y="193"/>
      <point x="805" y="52"/>
      <point x="625" y="-18"/>
    </contour>
    <contour>
      <point x="504" y="1249" type="qcurve" smooth="yes"/>
      <point x="476" y="1249"/>
      <point x="438" y="1220"/>
      <point x="420" y="1162"/>
      <point x="414" y="1101"/>
      <point x="414" y="1057" type="qcurve" smooth="yes"/>
      <point x="414" y="1036"/>
      <point x="416" y="952"/>
      <point x="416" y="931" type="qcurve" smooth="no"/>
      <point x="584" y="931" type="line" smooth="no"/>
      <point x="584" y="1087" type="line" smooth="yes"/>
      <point x="584" y="1249"/>
    </contour>
    <contour>
      <point x="77" y="1591" type="line" smooth="no"/>
      <point x="77" y="1889" type="line" smooth="no"/>
      <point x="435" y="1889" type="line" smooth="no"/>
      <point x="435" y="1591" type="line" smooth="no"/>
    </contour>
    <contour>
      <point x="561" y="1591" type="line" smooth="no"/>
      <point x="561" y="1889" type="line" smooth="no"/>
      <point x="919" y="1889" type="line" smooth="no"/>
      <point x="919" y="1591" type="line" smooth="no"/>
    </contour>
  </outline>
</glyph>
<glyph name="icircumflex" format="1">
  <advance width="514"/>
  <unicode hex="00ee"/>
  <outline>
    <contour>
      <point x="78" y="0" type="line" smooth="no"/>
      <point x="78" y="1500" type="line" smooth="no"/>
      <point x="436" y="1500" type="line" smooth="no"/>
      <point x="436" y="0" type="line" smooth="no"/>
    </contour>
    <contour>
      <point x="461" y="1994" type="line" smooth="no"/>
      <point x="702" y="1591" type="line" smooth="no"/>
      <point x="343" y="1591" type="line" smooth="no"/>
      <point x="257" y="1876" type="line" smooth="no"/>
      <point x="171" y="1591" type="line" smooth="no"/>
      <point x="-188" y="1591" type="line" smooth="no"/>
      <point x="53" y="1994" type="line" smooth="no"/>
    </contour>
  </outline>
</glyph>
<glyph name="idieresis" format="1">
  <advance width="514"/>
  <unicode hex="00ef"/>
  <outline>
    <contour>
      <point x="78" y="0" type="line" smooth="no"/>
      <point x="78" y="1500" type="line" smooth="no"/>
      <point x="436" y="1500" type="line" smooth="no"/>
      <point x="436" y="0" type="line" smooth="no"/>
    </contour>
    <contour>
      <point x="-164" y="1591" type="line" smooth="no"/>
      <point x="-164" y="1889" type="line" smooth="no"/>
      <point x="194" y="1889" type="line" smooth="no"/>
      <point x="194" y="1591" type="line" smooth="no"/>
    </contour>
    <contour>
      <point x="320" y="1591" type="line" smooth="no"/>
      <point x="320" y="1889" type="line" smooth="no"/>
      <point x="678" y="1889" type="line" smooth="no"/>
      <point x="678" y="1591" type="line" smooth="no"/>
    </contour>
  </outline>
</glyph>
<glyph name="divide" format="1">
  <advance width="683"/>
  <unicode hex="00f7"/>
  <outline>
    <contour>
      <point x="34" y="638" type="line" smooth="no"/>
      <point x="34" y="870" type="line" smooth="no"/>
      <point x="650" y="870" type="line" smooth="no"/>
      <point x="650" y="638" type="line" smooth="no"/>
    </contour>
    <contour>
      <point x="193" y="237" type="line" smooth="no"/>
      <point x="193" y="535" type="line" smooth="no"/>
      <point x="491" y="535" type="line" smooth="no"/>
      <point x="491" y="237" type="line" smooth="no"/>
    </contour>
    <contour>
      <point x="193" y="976" type="line" smooth="no"/>
      <point x="193" y="1274" type="line" smooth="no"/>
      <point x="491" y="1274" type="line" smooth="no"/>
      <point x="491" y="976" type="line" smooth="no"/>
    </contour>
  </outline>
</glyph>
<glyph name="oslash" format="1">
  <advance width="1036"/>
  <unicode hex="00f8"/>
  <outline>
    <contour>
      <point x="520" y="-18" type="qcurve" smooth="yes"/>
      <point x="430" y="-18"/>
      <point x="353" y="2" type="qcurve" smooth="no"/>
      <point x="304" y="-173" type="line" smooth="no"/>
      <point x="204" y="-145" type="line" smooth="no"/>
      <point x="256" y="42" type="line" smooth="no"/>
      <point x="72" y="151"/>
      <point x="72" y="449" type="qcurve" smooth="yes"/>
      <point x="72" y="1051" type="line" smooth="yes"/>
      <point x="72" y="1266"/>
      <point x="312" y="1518"/>
      <point x="520" y="1518" type="qcurve" smooth="yes"/>
      <point x="594" y="1518"/>
      <point x="664" y="1499" type="qcurve" smooth="no"/>
      <point x="713" y="1672" type="line" smooth="no"/>
      <point x="814" y="1644" type="line" smooth="no"/>
      <point x="762" y="1459" type="line" smooth="no"/>
      <point x="862" y="1402"/>
      <point x="969" y="1193"/>
      <point x="969" y="1051" type="qcurve" smooth="yes"/>
      <point x="969" y="449" type="line" smooth="yes"/>
      <point x="969" y="214"/>
      <point x="740" y="-18"/>
    </contour>
    <contour>
      <point x="520" y="260" type="qcurve" smooth="yes"/>
      <point x="557" y="260"/>
      <point x="604" y="315"/>
      <point x="604" y="375" type="qcurve" smooth="yes"/>
      <point x="604" y="895" type="line" smooth="no"/>
      <point x="443" y="321" type="line" smooth="no"/>
      <point x="461" y="260"/>
    </contour>
    <contour>
      <point x="520" y="1239" type="qcurve" smooth="yes"/>
      <point x="436" y="1239"/>
      <point x="436" y="1108" type="qcurve" smooth="yes"/>
      <point x="436" y="683" type="line" smooth="no"/>
      <point x="582" y="1206" type="line" smooth="no"/>
      <point x="561" y="1239"/>
    </contour>
  </outline>
</glyph>
<glyph name="lslash" format="1">
  <advance width="510"/>
  <unicode hex="0142"/>
  <outline>
    <contour>
      <point x="436" y="0" type="line" smooth="no"/>
      <point x="72" y="0" type="line" smooth="no"/>
      <point x="72" y="1767" type="line" smooth="no"/>
      <point x="436" y="1767" type="line" smooth="no"/>
    </contour>
    <contour>
      <point x="-3" y="509" type="line" smooth="no"/>
      <point x="-3" y="741" type="line" smooth="no"/>
      <point x="513" y="973" type="line" smooth="no"/>
      <point x="513" y="741" type="line" smooth="no"/>
    </contour>
  </outline>
</glyph>
<glyph name="Scaron" format="1">
  <advance width="995"/>
  <unicode hex="0160"/>
  <outline>
    <contour>
      <point x="520" y="-18" type="qcurve" smooth="yes"/>
      <point x="275" y="-18"/>
      <point x="66" y="206"/>
      <point x="66" y="440" type="qcurve" smooth="yes"/>
      <point x="66" y="596" type="line" smooth="no"/>
      <point x="414" y="596" type="line" smooth="no"/>
      <point x="414" y="453" type="line" smooth="yes"/>
      <point x="414" y="299"/>
      <point x="498" y="299" type="qcurve" smooth="yes"/>
      <point x="537" y="299"/>
      <point x="582" y="359"/>
      <point x="582" y="408" type="qcurve" smooth="yes"/>
      <point x="582" y="472"/>
      <point x="547" y="560"/>
      <point x="476" y="639"/>
      <point x="395" y="709" type="qcurve" smooth="yes"/>
      <point x="246" y="838" type="line" smooth="yes"/>
      <point x="66" y="993"/>
      <point x="66" y="1188" type="qcurve" smooth="yes"/>
      <point x="66" y="1400"/>
      <point x="283" y="1607"/>
      <point x="473" y="1607" type="qcurve" smooth="yes"/>
      <point x="581" y="1608"/>
      <point x="738" y="1562"/>
      <point x="858" y="1457"/>
      <point x="918" y="1270"/>
      <point x="918" y="1135" type="qcurve" smooth="no"/>
      <point x="561" y="1135" type="line" smooth="no"/>
      <point x="559" y="1231" type="line" smooth="yes"/>
      <point x="558" y="1258"/>
      <point x="514" y="1300"/>
      <point x="487" y="1300" type="qcurve" smooth="yes"/>
      <point x="452" y="1300"/>
      <point x="403" y="1257"/>
      <point x="403" y="1223" type="qcurve" smooth="yes"/>
      <point x="403" y="1155"/>
      <point x="502" y="1075" type="qcurve" smooth="yes"/>
      <point x="715" y="903" type="line" smooth="yes"/>
      <point x="767" y="861"/>
      <point x="844" y="774"/>
      <point x="889" y="689"/>
      <point x="917" y="620"/>
      <point x="928" y="539"/>
      <point x="930" y="498"/>
      <point x="930" y="465" type="qcurve" smooth="yes"/>
      <point x="930" y="381"/>
      <point x="908" y="244"/>
      <point x="852" y="117"/>
      <point x="761" y="32"/>
      <point x="616" y="-18"/>
    </contour>
    <contour>
      <point x="701" y="1683" type="line" smooth="no"/>
      <point x="293" y="1683" type="line" smooth="no"/>
      <point x="52" y="2086" type="line" smooth="no"/>
      <point x="411" y="2086" type="line" smooth="no"/>
      <point x="497" y="1801" type="line" smooth="no"/>
      <point x="583" y="2086" type="line" smooth="no"/>
      <point x="942" y="2086" type="line" smooth="no"/>
    </contour>
  </outline>
</glyph>
<glyph name="Ydieresis" format="1">
  <advance width="1022"/>
  <unicode hex="0178"/>
  <outline>
    <contour>
      <point x="674" y="0" type="line" smooth="no"/>
      <point x="342" y="0" type="line" smooth="no"/>
      <point x="342" y="524" type="line" smooth="no"/>
      <point x="61" y="1593" type="line" smooth="no"/>
      <point x="410" y="1593" type="line" smooth="no"/>
      <point x="508" y="1053" type="line" smooth="no"/>
      <point x="606" y="1593" type="line" smooth="no"/>
      <point x="954" y="1593" type="line" smooth="no"/>
      <point x="674" y="524" type="line" smooth="no"/>
    </contour>
    <contour>
      <point x="90" y="1683" type="line" smooth="no"/>
      <point x="90" y="1981" type="line" smooth="no"/>
      <point x="448" y="1981" type="line" smooth="no"/>
      <point x="448" y="1683" type="line" smooth="no"/>
    </contour>
    <contour>
      <point x="574" y="1683" type="line" smooth="no"/>
      <point x="574" y="1981" type="line" smooth="no"/>
      <point x="932" y="1981" type="line" smooth="no"/>
      <point x="932" y="1683" type="line" smooth="no"/>
    </contour>
  </outline>
</glyph>
<glyph name="florin" format="1">
  <advance width="627"/>
  <unicode hex="0192"/>
  <outline>
    <contour>
      <point x="493" y="986" type="line" smooth="no"/>
      <point x="493" y="195" type="line" smooth="yes"/>
      <point x="493" y="-47"/>
      <point x="251" y="-47" type="qcurve" smooth="yes"/>
      <point x="124" y="-47"/>
      <point x="47" y="-18" type="qcurve" smooth="no"/>
      <point x="47" y="203" type="line" smooth="no"/>
      <point x="75" y="198"/>
      <point x="90" y="198" type="qcurve" smooth="yes"/>
      <point x="124" y="198"/>
      <point x="145" y="237"/>
      <point x="145" y="279" type="qcurve" smooth="yes"/>
      <point x="145" y="297" type="line" smooth="no"/>
      <point x="138" y="986" type="line" smooth="no"/>
      <point x="53" y="986" type="line" smooth="no"/>
      <point x="53" y="1263" type="line" smooth="no"/>
      <point x="138" y="1263" type="line" smooth="no"/>
      <point x="138" y="1365" type="line" smooth="yes"/>
      <point x="138" y="1607"/>
      <point x="380" y="1607" type="qcurve" smooth="yes"/>
      <point x="507" y="1607"/>
      <point x="584" y="1578" type="qcurve" smooth="no"/>
      <point x="584" y="1357" type="line" smooth="no"/>
      <point x="556" y="1362"/>
      <point x="541" y="1362" type="qcurve" smooth="yes"/>
      <point x="507" y="1362"/>
      <point x="486" y="1323"/>
      <point x="486" y="1281" type="qcurve" smooth="yes"/>
      <point x="486" y="1263" type="line" smooth="no"/>
      <point x="584" y="1263" type="line" smooth="no"/>
      <point x="584" y="986" type="line" smooth="no"/>
    </contour>
  </outline>
</glyph>
<glyph name="uni0202" format="1">
  <advance width="1051"/>
  <unicode hex="0202"/>
  <outline>
    <contour>
      <point x="801" y="1593" type="line" smooth="no"/>
      <point x="977" y="0" type="line" smooth="no"/>
      <point x="637" y="0" type="line" smooth="no"/>
      <point x="612" y="240" type="line" smooth="no"/>
      <point x="434" y="240" type="line" smooth="no"/>
      <point x="412" y="0" type="line" smooth="no"/>
      <point x="70" y="0" type="line" smooth="no"/>
      <point x="250" y="1593" type="line" smooth="no"/>
    </contour>
    <contour>
      <point x="538" y="1294" type="line" smooth="no"/>
      <point x="506" y="1294" type="line" smooth="no"/>
      <point x="459" y="530" type="line" smooth="no"/>
      <point x="585" y="530" type="line" smooth="no"/>
    </contour>
    <contour>
      <point x="473" y="1842"/>
      <point x="411" y="1788"/>
      <point x="411" y="1730" type="qcurve" smooth="no"/>
      <point x="95" y="1729" type="line" smooth="no"/>
      <point x="92" y="1750"/>
      <point x="92" y="1771" type="qcurve" smooth="yes"/>
      <point x="92" y="1915"/>
      <point x="322" y="2082"/>
      <point x="524" y="2082" type="qcurve" smooth="yes"/>
      <point x="730" y="2082"/>
      <point x="959" y="1912"/>
      <point x="959" y="1764" type="qcurve" smooth="yes"/>
      <point x="959" y="1753"/>
      <point x="957" y="1729" type="qcurve" smooth="no"/>
      <point x="641" y="1729"/>
      <point x="641" y="1730" type="qcurve" smooth="yes"/>
      <point x="641" y="1788"/>
      <point x="579" y="1842"/>
    </contour>
  </outline>
</glyph>
<glyph name="uni0203" format="1">
  <advance width="1018"/>
  <unicode hex="0203"/>
  <outline>
    <contour>
      <point x="61" y="430" type="qcurve" smooth="yes"/>
      <point x="61" y="629"/>
      <point x="120" y="729" type="qcurve" smooth="yes"/>
      <point x="171" y="815"/>
      <point x="297" y="874" type="qcurve" smooth="yes"/>
      <point x="361" y="904"/>
      <point x="583" y="980" type="qcurve" smooth="yes"/>
      <point x="583" y="983" type="line" smooth="yes"/>
      <point x="583" y="1015"/>
      <point x="582" y="1055"/>
      <point x="581" y="1105"/>
      <point x="579" y="1135"/>
      <point x="575" y="1171"/>
      <point x="570" y="1190"/>
      <point x="561" y="1213"/>
      <point x="550" y="1225"/>
      <point x="536" y="1235"/>
      <point x="517" y="1239"/>
      <point x="506" y="1239" type="qcurve" smooth="yes"/>
      <point x="432" y="1239"/>
      <point x="432" y="1157" type="qcurve" smooth="yes"/>
      <point x="432" y="1056" type="line" smooth="no"/>
      <point x="84" y="1056" type="line" smooth="no"/>
      <point x="83" y="1073"/>
      <point x="83" y="1105" type="qcurve" smooth="yes"/>
      <point x="83" y="1319"/>
      <point x="286" y="1518"/>
      <point x="524" y="1518" type="qcurve" smooth="yes"/>
      <point x="601" y="1518"/>
      <point x="745" y="1475"/>
      <point x="869" y="1390"/>
      <point x="944" y="1240"/>
      <point x="944" y="1143" type="qcurve" smooth="yes"/>
      <point x="944" y="0" type="line" smooth="no"/>
      <point x="588" y="0" type="line" smooth="no"/>
      <point x="588" y="156" type="line" smooth="no"/>
      <point x="570" y="90"/>
      <point x="440" y="-18"/>
      <point x="365" y="-18" type="qcurve" smooth="yes"/>
      <point x="311" y="-18"/>
      <point x="229" y="1"/>
      <point x="147" y="59"/>
      <point x="94" y="156"/>
      <point x="61" y="319"/>
    </contour>
    <contour>
      <point x="426" y="570" type="qcurve" smooth="yes"/>
      <point x="426" y="395" type="line" smooth="yes"/>
      <point x="426" y="262"/>
      <point x="506" y="262" type="qcurve" smooth="yes"/>
      <point x="528" y="262"/>
      <point x="560" y="286"/>
      <point x="576" y="324"/>
      <point x="582" y="360"/>
      <point x="582" y="379" type="qcurve" smooth="yes"/>
      <point x="582" y="774" type="line" smooth="no"/>
      <point x="490" y="737"/>
      <point x="426" y="638"/>
    </contour>
    <contour>
      <point x="472" y="1753"/>
      <point x="410" y="1699"/>
      <point x="410" y="1641" type="qcurve" smooth="no"/>
      <point x="94" y="1640" type="line" smooth="no"/>
      <point x="90" y="1661"/>
      <point x="90" y="1682" type="qcurve" smooth="yes"/>
      <point x="90" y="1826"/>
      <point x="320" y="1993"/>
      <point x="522" y="1993" type="qcurve" smooth="yes"/>
      <point x="728" y="1993"/>
      <point x="958" y="1823"/>
      <point x="958" y="1675" type="qcurve" smooth="yes"/>
      <point x="958" y="1664"/>
      <point x="956" y="1640" type="qcurve" smooth="no"/>
      <point x="640" y="1640"/>
      <point x="640" y="1641" type="qcurve" smooth="yes"/>
      <point x="640" y="1699"/>
      <point x="578" y="1753"/>
    </contour>
  </outline>
</glyph>
<glyph name="uni0204" format="1">
  <advance width="872"/>
  <unicode hex="0204"/>
  <outline>
    <contour>
      <point x="72" y="0" type="line" smooth="no"/>
      <point x="72" y="1593" type="line" smooth="no"/>
      <point x="776" y="1593" type="line" smooth="no"/>
      <point x="776" y="1284" type="line" smooth="no"/>
      <point x="430" y="1284" type="line" smooth="no"/>
      <point x="430" y="973" type="line" smooth="no"/>
      <point x="762" y="973" type="line" smooth="no"/>
      <point x="762" y="674" type="line" smooth="no"/>
      <point x="430" y="674" type="line" smooth="no"/>
      <point x="430" y="311" type="line" smooth="no"/>
      <point x="799" y="311" type="line" smooth="no"/>
      <point x="799" y="0" type="line" smooth="no"/>
    </contour>
    <contour>
      <point x="575" y="1729" type="line" smooth="no"/>
      <point x="327" y="2158" type="line" smooth="no"/>
      <point x="557" y="2266" type="line" smooth="no"/>
      <point x="741" y="1787" type="line" smooth="no"/>
    </contour>
    <contour>
      <point x="273" y="1729" type="line" smooth="no"/>
      <point x="-16" y="2158" type="line" smooth="no"/>
      <point x="218" y="2266" type="line" smooth="no"/>
      <point x="439" y="1787" type="line" smooth="no"/>
    </contour>
  </outline>
</glyph>
<glyph name="uni0208" format="1">
  <advance width="498"/>
  <unicode hex="0208"/>
  <outline>
    <contour>
      <point x="76" y="0" type="line" smooth="no"/>
      <point x="76" y="1593" type="line" smooth="no"/>
      <point x="416" y="1593" type="line" smooth="no"/>
      <point x="416" y="0" type="line" smooth="no"/>
    </contour>
    <contour>
      <point x="397" y="1729" type="line" smooth="no"/>
      <point x="149" y="2158" type="line" smooth="no"/>
      <point x="379" y="2266" type="line" smooth="no"/>
      <point x="563" y="1787" type="line" smooth="no"/>
    </contour>
    <contour>
      <point x="95" y="1729" type="line" smooth="no"/>
      <point x="-194" y="2158" type="line" smooth="no"/>
      <point x="40" y="2266" type="line" smooth="no"/>
      <point x="261" y="1787" type="line" smooth="no"/>
    </contour>
  </outline>
</glyph>
<glyph name="uni0209" format="1">
  <advance width="514"/>
  <unicode hex="0209"/>
  <outline>
    <contour>
      <point x="78" y="0" type="line" smooth="no"/>
      <point x="78" y="1500" type="line" smooth="no"/>
      <point x="436" y="1500" type="line" smooth="no"/>
      <point x="436" y="0" type="line" smooth="no"/>
    </contour>
    <contour>
      <point x="408" y="1640" type="line" smooth="no"/>
      <point x="160" y="2069" type="line" smooth="no"/>
      <point x="390" y="2177" type="line" smooth="no"/>
      <point x="574" y="1698" type="line" smooth="no"/>
    </contour>
    <contour>
      <point x="106" y="1640" type="line" smooth="no"/>
      <point x="-183" y="2069" type="line" smooth="no"/>
      <point x="51" y="2177" type="line" smooth="no"/>
      <point x="272" y="1698" type="line" smooth="no"/>
    </contour>
  </outline>
</glyph>
<glyph name="uni020B" format="1">
  <advance width="514"/>
  <unicode hex="020b"/>
  <outline>
    <contour>
      <point x="78" y="0" type="line" smooth="no"/>
      <point x="78" y="1500" type="line" smooth="no"/>
      <point x="436" y="1500" type="line" smooth="no"/>
      <point x="436" y="0" type="line" smooth="no"/>
    </contour>
    <contour>
      <point x="204" y="1753"/>
      <point x="142" y="1699"/>
      <point x="142" y="1641" type="qcurve" smooth="no"/>
      <point x="-174" y="1640" type="line" smooth="no"/>
      <point x="-176" y="1661"/>
      <point x="-176" y="1682" type="qcurve" smooth="yes"/>
      <point x="-176" y="1826"/>
      <point x="54" y="1993"/>
      <point x="256" y="1993" type="qcurve" smooth="yes"/>
      <point x="462" y="1993"/>
      <point x="690" y="1823"/>
      <point x="690" y="1675" type="qcurve" smooth="yes"/>
      <point x="690" y="1664"/>
      <point x="688" y="1640" type="qcurve" smooth="no"/>
      <point x="372" y="1640"/>
      <point x="372" y="1641" type="qcurve" smooth="yes"/>
      <point x="372" y="1699"/>
      <point x="310" y="1753"/>
    </contour>
  </outline>
</glyph>
<glyph name="uni020F" format="1">
  <advance width="1036"/>
  <unicode hex="020f"/>
  <outline>
    <contour>
      <point x="520" y="-18" type="qcurve" smooth="yes"/>
      <point x="72" y="-18"/>
      <point x="72" y="449" type="qcurve" smooth="yes"/>
      <point x="72" y="1051" type="line" smooth="yes"/>
      <point x="72" y="1266"/>
      <point x="312" y="1518"/>
      <point x="520" y="1518" type="qcurve" smooth="yes"/>
      <point x="729" y="1518"/>
      <point x="969" y="1266"/>
      <point x="969" y="1051" type="qcurve" smooth="yes"/>
      <point x="969" y="449" type="line" smooth="yes"/>
      <point x="969" y="214"/>
      <point x="740" y="-18"/>
    </contour>
    <contour>
      <point x="436" y="1239"/>
      <point x="436" y="1108" type="qcurve" smooth="yes"/>
      <point x="436" y="375" type="line" smooth="yes"/>
      <point x="436" y="315"/>
      <point x="483" y="260"/>
      <point x="557" y="260"/>
      <point x="604" y="315"/>
      <point x="604" y="375" type="qcurve" smooth="yes"/>
      <point x="604" y="1108" type="line" smooth="yes"/>
      <point x="604" y="1239"/>
    </contour>
    <contour>
      <point x="468" y="1753"/>
      <point x="406" y="1699"/>
      <point x="406" y="1641" type="qcurve" smooth="no"/>
      <point x="90" y="1640" type="line" smooth="no"/>
      <point x="86" y="1661"/>
      <point x="86" y="1682" type="qcurve" smooth="yes"/>
      <point x="86" y="1826"/>
      <point x="316" y="1993"/>
      <point x="518" y="1993" type="qcurve" smooth="yes"/>
      <point x="724" y="1993"/>
      <point x="954" y="1823"/>
      <point x="954" y="1675" type="qcurve" smooth="yes"/>
      <point x="954" y="1664"/>
      <point x="952" y="1640" type="qcurve" smooth="no"/>
      <point x="636" y="1640"/>
      <point x="636" y="1641" type="qcurve" smooth="yes"/>
      <point x="636" y="1699"/>
      <point x="574" y="1753"/>
    </contour>
  </outline>
</glyph>
<glyph name="uni0213" format="1">
  <advance width="920"/>
  <unicode hex="0213"/>
  <outline>
    <contour>
      <point x="67" y="0" type="line" smooth="no"/>
      <point x="67" y="1500" type="line" smooth="no"/>
      <point x="425" y="1500" type="line" smooth="no"/>
      <point x="425" y="1333" type="line" smooth="no"/>
      <point x="455" y="1436"/>
      <point x="563" y="1518"/>
      <point x="646" y="1518" type="qcurve" smooth="yes"/>
      <point x="746" y="1518"/>
      <point x="898" y="1395"/>
      <point x="898" y="1278" type="qcurve" smooth="yes"/>
      <point x="898" y="776" type="line" smooth="no"/>
      <point x="548" y="776" type="line" smooth="no"/>
      <point x="548" y="1135" type="line" smooth="yes"/>
      <point x="548" y="1162"/>
      <point x="543" y="1199"/>
      <point x="516" y="1233"/>
      <point x="491" y="1233" type="qcurve" smooth="yes"/>
      <point x="465" y="1233"/>
      <point x="425" y="1187"/>
      <point x="425" y="1147" type="qcurve" smooth="yes"/>
      <point x="425" y="0" type="line" smooth="no"/>
    </contour>
    <contour>
      <point x="430" y="1753"/>
      <point x="368" y="1699"/>
      <point x="368" y="1641" type="qcurve" smooth="no"/>
      <point x="52" y="1640" type="line" smooth="no"/>
      <point x="49" y="1661"/>
      <point x="49" y="1682" type="qcurve" smooth="yes"/>
      <point x="49" y="1826"/>
      <point x="279" y="1993"/>
      <point x="481" y="1993" type="qcurve" smooth="yes"/>
      <point x="687" y="1993"/>
      <point x="916" y="1823"/>
      <point x="916" y="1675" type="qcurve" smooth="yes"/>
      <point x="916" y="1664"/>
      <point x="914" y="1640" type="qcurve" smooth="no"/>
      <point x="598" y="1640"/>
      <point x="598" y="1641" type="qcurve" smooth="yes"/>
      <point x="598" y="1699"/>
      <point x="536" y="1753"/>
    </contour>
  </outline>
</glyph>
<glyph name="uni0217" format="1">
  <advance width="1013"/>
  <unicode hex="0217"/>
  <outline>
    <contour>
      <point x="591" y="1500" type="line" smooth="no"/>
      <point x="947" y="1500" type="line" smooth="no"/>
      <point x="947" y="0" type="line" smooth="no"/>
      <point x="589" y="0" type="line" smooth="no"/>
      <point x="589" y="160" type="line" smooth="no"/>
      <point x="547" y="54"/>
      <point x="438" y="-18"/>
      <point x="358" y="-18" type="qcurve" smooth="yes"/>
      <point x="282" y="-18"/>
      <point x="172" y="27"/>
      <point x="110" y="96"/>
      <point x="75" y="207"/>
      <point x="65" y="311"/>
      <point x="65" y="383" type="qcurve" smooth="yes"/>
      <point x="65" y="1500" type="line" smooth="no"/>
      <point x="425" y="1500" type="line" smooth="no"/>
      <point x="425" y="455" type="line" smooth="yes"/>
      <point x="425" y="341"/>
      <point x="452" y="264"/>
      <point x="505" y="264" type="qcurve" smooth="yes"/>
      <point x="525" y="264"/>
      <point x="556" y="279"/>
      <point x="573" y="311"/>
      <point x="584" y="341"/>
      <point x="588" y="390"/>
      <point x="589" y="418"/>
      <point x="589" y="443" type="qcurve" smooth="yes"/>
      <point x="589" y="455" type="line" smooth="yes"/>
    </contour>
    <contour>
      <point x="454" y="1753"/>
      <point x="392" y="1699"/>
      <point x="392" y="1641" type="qcurve" smooth="no"/>
      <point x="76" y="1640" type="line" smooth="no"/>
      <point x="72" y="1661"/>
      <point x="72" y="1682" type="qcurve" smooth="yes"/>
      <point x="72" y="1826"/>
      <point x="302" y="1993"/>
      <point x="504" y="1993" type="qcurve" smooth="yes"/>
      <point x="710" y="1993"/>
      <point x="940" y="1823"/>
      <point x="940" y="1675" type="qcurve" smooth="yes"/>
      <point x="940" y="1664"/>
      <point x="938" y="1640" type="qcurve" smooth="no"/>
      <point x="622" y="1640"/>
      <point x="622" y="1641" type="qcurve" smooth="yes"/>
      <point x="622" y="1699"/>
      <point x="560" y="1753"/>
    </contour>
  </outline>
</glyph>
<glyph name="circumflex" format="1">
  <advance width="970"/>
  <unicode hex="02c6"/>
  <outline>
    <contour>
      <point x="689" y="1994" type="line" smooth="no"/>
      <point x="930" y="1591" type="line" smooth="no"/>
      <point x="571" y="1591" type="line" smooth="no"/>
      <point x="485" y="1876" type="line" smooth="no"/>
      <point x="399" y="1591" type="line" smooth="no"/>
      <point x="40" y="1591" type="line" smooth="no"/>
      <point x="281" y="1994" type="line" smooth="no"/>
    </contour>
  </outline>
</glyph>
<glyph name="caron" format="1">
  <advance width="970"/>
  <unicode hex="02c7"/>
  <outline>
    <contour>
      <point x="689" y="1591" type="line" smooth="no"/>
      <point x="281" y="1591" type="line" smooth="no"/>
      <point x="40" y="1994" type="line" smooth="no"/>
      <point x="399" y="1994" type="line" smooth="no"/>
      <point x="485" y="1709" type="line" smooth="no"/>
      <point x="571" y="1994" type="line" smooth="no"/>
      <point x="930" y="1994" type="line" smooth="no"/>
    </contour>
  </outline>
</glyph>
<glyph name="ring" format="1">
  <advance width="804"/>
  <unicode hex="02da"/>
  <outline>
    <contour>
      <point x="261" y="387"/>
      <point x="334" y="293"/>
      <point x="472" y="293"/>
      <point x="545" y="387"/>
      <point x="545" y="513"/>
      <point x="472" y="607"/>
      <point x="334" y="607"/>
      <point x="261" y="513"/>
    </contour>
    <contour>
      <point x="49" y="606"/>
      <point x="238" y="788"/>
      <point x="566" y="788"/>
      <point x="756" y="606"/>
      <point x="756" y="294"/>
      <point x="566" y="112"/>
      <point x="238" y="112"/>
      <point x="49" y="294"/>
    </contour>
  </outline>
</glyph>
<glyph name="hungarumlaut" format="1">
  <advance width="1300"/>
  <unicode hex="02dd"/>
  <outline>
    <contour>
      <point x="423" y="1236" type="line" smooth="no"/>
      <point x="257" y="1294" type="line" smooth="no"/>
      <point x="441" y="1773" type="line" smooth="no"/>
      <point x="671" y="1665" type="line" smooth="no"/>
    </contour>
    <contour>
      <point x="725" y="1236" type="line" smooth="no"/>
      <point x="559" y="1294" type="line" smooth="no"/>
      <point x="780" y="1773" type="line" smooth="no"/>
      <point x="1014" y="1665" type="line" smooth="no"/>
    </contour>
  </outline>
</glyph>
<glyph name="pi" format="1">
  <advance width="514"/>
  <unicode hex="03c0"/>
  <outline>
    <contour>
      <point x="78" y="0" type="line" smooth="no"/>
      <point x="78" y="1500" type="line" smooth="no"/>
      <point x="436" y="1500" type="line" smooth="no"/>
      <point x="436" y="0" type="line" smooth="no"/>
    </contour>
    <contour>
      <point x="78" y="0" type="line" smooth="no"/>
      <point x="436" y="0" type="line" smooth="no"/>
      <point x="436" y="1500" type="line" smooth="no"/>
      <point x="78" y="1500" type="line" smooth="no"/>
    </contour>
  </outline>
</glyph>
<glyph name="quotedblleft" format="1">
  <advance width="964"/>
  <unicode hex="201c"/>
  <outline>
    <contour>
      <point x="904" y="1356" type="line" smooth="no"/>
      <point x="904" y="1058" type="line" smooth="no"/>
      <point x="530" y="1058" type="line" smooth="no"/>
      <point x="530" y="1347" type="line" smooth="no"/>
      <point x="632" y="1592" type="line" smooth="no"/>
      <point x="843" y="1592" type="line" smooth="no"/>
      <point x="777" y="1356" type="line" smooth="no"/>
    </contour>
    <contour>
      <point x="435" y="1356" type="line" smooth="no"/>
      <point x="435" y="1058" type="line" smooth="no"/>
      <point x="61" y="1058" type="line" smooth="no"/>
      <point x="61" y="1347" type="line" smooth="no"/>
      <point x="163" y="1592" type="line" smooth="no"/>
      <point x="374" y="1592" type="line" smooth="no"/>
      <point x="308" y="1356" type="line" smooth="no"/>
    </contour>
  </outline>
</glyph>
<glyph name="dagger" format="1">
  <advance width="780"/>
  <unicode hex="2020"/>
  <outline>
    <contour>
      <point x="573" y="0" type="line" smooth="no"/>
      <point x="209" y="0" type="line" smooth="no"/>
      <point x="209" y="996" type="line" smooth="no"/>
      <point x="26" y="996" type="line" smooth="no"/>
      <point x="26" y="1292" type="line" smooth="no"/>
      <point x="209" y="1292" type="line" smooth="no"/>
      <point x="209" y="1592" type="line" smooth="no"/>
      <point x="573" y="1592" type="line" smooth="no"/>
      <point x="573" y="1292" type="line" smooth="no"/>
      <point x="753" y="1292" type="line" smooth="no"/>
      <point x="753" y="996" type="line" smooth="no"/>
      <point x="573" y="996" type="line" smooth="no"/>
    </contour>
  </outline>
</glyph>
<glyph name="perthousand" format="1">
  <advance width="3031"/>
  <unicode hex="2030"/>
  <outline>
    <contour>
      <point x="2604" y="-18" type="qcurve" smooth="yes"/>
      <point x="2529" y="-18"/>
      <point x="2394" y="30"/>
      <point x="2280" y="126"/>
      <point x="2213" y="293"/>
      <point x="2213" y="402" type="qcurve" smooth="yes"/>
      <point x="2213" y="765" type="line" smooth="yes"/>
      <point x="2213" y="974"/>
      <point x="2413" y="1183"/>
      <point x="2795" y="1183"/>
      <point x="2996" y="974"/>
      <point x="2996" y="765" type="qcurve" smooth="yes"/>
      <point x="2996" y="402" type="line" smooth="yes"/>
      <point x="2996" y="293"/>
      <point x="2929" y="126"/>
      <point x="2815" y="30"/>
      <point x="2680" y="-18"/>
    </contour>
    <contour>
      <point x="2638" y="244"/>
      <point x="2697" y="296"/>
      <point x="2697" y="343" type="qcurve" smooth="yes"/>
      <point x="2697" y="829" type="line" smooth="yes"/>
      <point x="2697" y="852"/>
      <point x="2696" y="876"/>
      <point x="2686" y="917"/>
      <point x="2668" y="939"/>
      <point x="2631" y="956"/>
      <point x="2604" y="956" type="qcurve" smooth="yes"/>
      <point x="2578" y="956"/>
      <point x="2541" y="939"/>
      <point x="2522" y="917"/>
      <point x="2512" y="877"/>
      <point x="2511" y="851"/>
      <point x="2511" y="829" type="qcurve" smooth="yes"/>
      <point x="2511" y="343" type="line" smooth="yes"/>
      <point x="2511" y="296"/>
      <point x="2570" y="244"/>
    </contour>
    <contour>
      <point x="990" y="0" type="line" smooth="no"/>
      <point x="667" y="0" type="line" smooth="no"/>
      <point x="1207" y="1767" type="line" smooth="no"/>
      <point x="1531" y="1767" type="line" smooth="no"/>
    </contour>
    <contour>
      <point x="440" y="528" type="qcurve" smooth="yes"/>
      <point x="365" y="528"/>
      <point x="230" y="576"/>
      <point x="116" y="672"/>
      <point x="49" y="839"/>
      <point x="49" y="948" type="qcurve" smooth="yes"/>
      <point x="49" y="1311" type="line" smooth="yes"/>
      <point x="49" y="1520"/>
      <point x="249" y="1729"/>
      <point x="631" y="1729"/>
      <point x="832" y="1520"/>
      <point x="832" y="1311" type="qcurve" smooth="yes"/>
      <point x="832" y="948" type="line" smooth="yes"/>
      <point x="832" y="839"/>
      <point x="765" y="672"/>
      <point x="651" y="576"/>
      <point x="516" y="528"/>
    </contour>
    <contour>
      <point x="474" y="790"/>
      <point x="533" y="842"/>
      <point x="533" y="889" type="qcurve" smooth="yes"/>
      <point x="533" y="1375" type="line" smooth="yes"/>
      <point x="533" y="1398"/>
      <point x="532" y="1422"/>
      <point x="522" y="1463"/>
      <point x="504" y="1485"/>
      <point x="467" y="1502"/>
      <point x="440" y="1502" type="qcurve" smooth="yes"/>
      <point x="414" y="1502"/>
      <point x="377" y="1485"/>
      <point x="358" y="1463"/>
      <point x="348" y="1423"/>
      <point x="347" y="1397"/>
      <point x="347" y="1375" type="qcurve" smooth="yes"/>
      <point x="347" y="889" type="line" smooth="yes"/>
      <point x="347" y="842"/>
      <point x="406" y="790"/>
    </contour>
    <contour>
      <point x="1737" y="-18" type="qcurve" smooth="yes"/>
      <point x="1662" y="-18"/>
      <point x="1527" y="30"/>
      <point x="1413" y="126"/>
      <point x="1346" y="293"/>
      <point x="1346" y="402" type="qcurve" smooth="yes"/>
      <point x="1346" y="765" type="line" smooth="yes"/>
      <point x="1346" y="974"/>
      <point x="1546" y="1183"/>
      <point x="1928" y="1183"/>
      <point x="2129" y="974"/>
      <point x="2129" y="765" type="qcurve" smooth="yes"/>
      <point x="2129" y="402" type="line" smooth="yes"/>
      <point x="2129" y="293"/>
      <point x="2062" y="126"/>
      <point x="1948" y="30"/>
      <point x="1813" y="-18"/>
    </contour>
    <contour>
      <point x="1771" y="244"/>
      <point x="1830" y="296"/>
      <point x="1830" y="343" type="qcurve" smooth="yes"/>
      <point x="1830" y="829" type="line" smooth="yes"/>
      <point x="1830" y="852"/>
      <point x="1829" y="876"/>
      <point x="1819" y="917"/>
      <point x="1801" y="939"/>
      <point x="1764" y="956"/>
      <point x="1737" y="956" type="qcurve" smooth="yes"/>
      <point x="1711" y="956"/>
      <point x="1674" y="939"/>
      <point x="1655" y="917"/>
      <point x="1645" y="877"/>
      <point x="1644" y="851"/>
      <point x="1644" y="829" type="qcurve" smooth="yes"/>
      <point x="1644" y="343" type="line" smooth="yes"/>
      <point x="1644" y="296"/>
      <point x="1703" y="244"/>
    </contour>
  </outline>
</glyph>
<glyph name="Euro" format="1">
  <advance width="1075"/>
  <unicode hex="20AC"/>
  <outline>
    <contour>
      <point x="0" y="942" type="line"/>
      <point x="100" y="942" type="line"/>
      <point x="100" y="791" type="line"/>
      <point x="0" y="791" type="line"/>
      <point x="0" y="559" type="line"/>
      <point x="100" y="559" type="line"/>
      <point x="100" y="482" type="line" smooth="yes"/>
      <point x="100" y="121"/>
      <point x="337" y="-18"/>
      <point x="566" y="-18" type="curve" smooth="yes"/>
      <point x="779" y="-18"/>
      <point x="999" y="119"/>
      <point x="1002" y="475" type="curve"/>
      <point x="653" y="469" type="line"/>
      <point x="653" y="447" type="line" smooth="yes"/>
      <point x="653" y="365"/>
      <point x="603" y="330"/>
      <point x="566" y="330" type="curve" smooth="yes"/>
      <point x="529" y="330"/>
      <point x="479" y="365"/>
      <point x="479" y="447" type="curve" smooth="yes"/>
      <point x="479" y="559" type="line"/>
      <point x="794" y="559" type="line"/>
      <point x="794" y="791" type="line"/>
      <point x="479" y="791" type="line"/>
      <point x="479" y="942" type="line"/>
      <point x="794" y="942" type="line"/>
      <point x="794" y="1166" type="line"/>
      <point x="479" y="1166" type="line"/>
      <point x="479" y="1273" type="line" smooth="yes"/>
      <point x="479" y="1338"/>
      <point x="480" y="1424"/>
      <point x="566" y="1424" type="curve" smooth="yes"/>
      <point x="652" y="1424"/>
      <point x="653" y="1338"/>
      <point x="653" y="1273" type="curve" smooth="yes"/>
      <point x="653" y="1246" type="line"/>
      <point x="1002" y="1245" type="line"/>
      <point x="997" y="1571"/>
      <point x="844" y="1729"/>
      <point x="566" y="1729" type="curve" smooth="yes"/>
      <point x="266" y="1729"/>
      <point x="100" y="1567"/>
      <point x="100" y="1231" type="curve" smooth="yes"/>
      <point x="100" y="1166" type="line"/>
      <point x="0" y="1166" type="line"/>
    </contour>
  </outline>
</glyph>
<glyph name="trademark" format="1">
  <advance width="1857"/>
  <unicode hex="2122"/>
  <outline>
    <contour>
      <point x="57" y="1593" type="line" smooth="no"/>
      <point x="641" y="1593" type="line" smooth="no"/>
      <point x="641" y="1361" type="line" smooth="no"/>
      <point x="482" y="1361" type="line" smooth="no"/>
      <point x="482" y="386" type="line" smooth="no"/>
      <point x="215" y="386" type="line" smooth="no"/>
      <point x="215" y="1361" type="line" smooth="no"/>
      <point x="57" y="1361" type="line" smooth="no"/>
    </contour>
    <contour>
      <point x="1393" y="386" type="line" smooth="no"/>
      <point x="1153" y="386" type="line" smooth="no"/>
      <point x="1006" y="1257" type="line" smooth="no"/>
      <point x="1006" y="386" type="line" smooth="no"/>
      <point x="750" y="386" type="line" smooth="no"/>
      <point x="750" y="1593" type="line" smooth="no"/>
      <point x="1156" y="1593" type="line" smooth="no"/>
      <point x="1269" y="963" type="line" smooth="no"/>
      <point x="1381" y="1593" type="line" smooth="no"/>
      <point x="1790" y="1593" type="line" smooth="no"/>
      <point x="1790" y="386" type="line" smooth="no"/>
      <point x="1531" y="386" type="line" smooth="no"/>
      <point x="1531" y="1257" type="line" smooth="no"/>
    </contour>
  </outline>
</glyph>
<glyph name="partialdiff" format="1">
  <advance width="1087"/>
  <unicode hex="2202"/>
  <outline>
    <contour>
      <point x="288" y="1376" type="qcurve" smooth="no"/>
      <point x="234" y="1607" type="line" smooth="no"/>
      <point x="465" y="1681"/>
      <point x="624" y="1681" type="qcurve" smooth="yes"/>
      <point x="843" y="1681"/>
      <point x="1035" y="1415"/>
      <point x="1035" y="1159" type="qcurve" smooth="yes"/>
      <point x="1035" y="1064"/>
      <point x="985" y="567" type="qcurve" smooth="yes"/>
      <point x="977" y="489"/>
      <point x="958" y="370"/>
      <point x="920" y="242"/>
      <point x="869" y="150"/>
      <point x="789" y="64"/>
      <point x="685" y="11"/>
      <point x="540" y="-21"/>
      <point x="451" y="-21" type="qcurve" smooth="yes"/>
      <point x="356" y="-21"/>
      <point x="212" y="23"/>
      <point x="121" y="98"/>
      <point x="64" y="211"/>
      <point x="42" y="336"/>
      <point x="42" y="413" type="qcurve" smooth="yes"/>
      <point x="42" y="482"/>
      <point x="56" y="619"/>
      <point x="87" y="777"/>
      <point x="149" y="911"/>
      <point x="235" y="1022"/>
      <point x="368" y="1086"/>
      <point x="450" y="1086" type="qcurve" smooth="yes"/>
      <point x="544" y="1086"/>
      <point x="659" y="1047" type="qcurve" smooth="no"/>
      <point x="670" y="1116"/>
      <point x="670" y="1164" type="qcurve" smooth="yes"/>
      <point x="670" y="1301"/>
      <point x="579" y="1415"/>
      <point x="512" y="1415" type="qcurve" smooth="yes"/>
      <point x="448" y="1415"/>
      <point x="323" y="1390"/>
    </contour>
    <contour>
      <point x="596" y="419" type="qcurve" smooth="yes"/>
      <point x="627" y="759" type="line" smooth="no"/>
      <point x="578" y="794"/>
      <point x="539" y="794" type="qcurve" smooth="yes"/>
      <point x="460" y="794"/>
      <point x="445" y="645" type="qcurve" smooth="yes"/>
      <point x="428" y="475" type="line" smooth="yes"/>
      <point x="422" y="421"/>
      <point x="422" y="391" type="qcurve" smooth="yes"/>
      <point x="422" y="345"/>
      <point x="453" y="293"/>
      <point x="495" y="293" type="qcurve" smooth="yes"/>
      <point x="535" y="293"/>
      <point x="590" y="354"/>
    </contour>
  </outline>
</glyph>
<glyph name="Delta" format="1">
  <advance width="1051"/>
  <unicode hex="2206"/>
  <outline>
    <contour>
      <point x="771" y="1353" type="line"/>
      <point x="280" y="1353" type="line"/>
      <point x="97" y="0" type="line"/>
      <point x="950" y="0" type="line"/>
    </contour>
    <contour>
      <point x="538" y="1044" type="line"/>
      <point x="605" y="230" type="line"/>
      <point x="439" y="230" type="line"/>
      <point x="506" y="1044" type="line"/>
    </contour>
  </outline>
</glyph>
<glyph name="uni2206" format="1">
  <advance width="1051"/>
  <unicode hex="2206"/>
  <outline>
    <contour>
      <point x="771" y="1353" type="line" smooth="no"/>
      <point x="950" y="0" type="line" smooth="no"/>
      <point x="97" y="0" type="line" smooth="no"/>
      <point x="280" y="1353" type="line" smooth="no"/>
    </contour>
    <contour>
      <point x="538" y="1044" type="line" smooth="no"/>
      <point x="506" y="1044" type="line" smooth="no"/>
      <point x="439" y="230" type="line" smooth="no"/>
      <point x="605" y="230" type="line" smooth="no"/>
    </contour>
  </outline>
</glyph>
<glyph name="infinity" format="1">
  <advance width="1189"/>
  <unicode hex="221e"/>
  <outline>
    <contour>
      <point x="587" y="885" type="qcurve" smooth="no"/>
      <point x="713" y="1041"/>
      <point x="860" y="1041" type="qcurve" smooth="yes"/>
      <point x="891" y="1041"/>
      <point x="954" y="1030"/>
      <point x="1032" y="991"/>
      <point x="1090" y="930"/>
      <point x="1130" y="818"/>
      <point x="1130" y="744" type="qcurve" smooth="yes"/>
      <point x="1130" y="668"/>
      <point x="1090" y="553"/>
      <point x="1032" y="490"/>
      <point x="954" y="451"/>
      <point x="891" y="439"/>
      <point x="860" y="439" type="qcurve" smooth="yes"/>
      <point x="773" y="439"/>
      <point x="635" y="524"/>
      <point x="587" y="585" type="qcurve" smooth="no"/>
      <point x="539" y="531"/>
      <point x="395" y="452"/>
      <point x="318" y="452" type="qcurve" smooth="yes"/>
      <point x="287" y="452"/>
      <point x="226" y="463"/>
      <point x="150" y="500"/>
      <point x="94" y="560"/>
      <point x="56" y="671"/>
      <point x="56" y="744" type="qcurve" smooth="yes"/>
      <point x="56" y="815"/>
      <point x="95" y="922"/>
      <point x="151" y="981"/>
      <point x="226" y="1017"/>
      <point x="287" y="1028"/>
      <point x="318" y="1028" type="qcurve" smooth="yes"/>
      <point x="460" y="1028"/>
    </contour>
    <contour>
      <point x="801" y="669" type="qcurve" smooth="yes"/>
      <point x="896" y="669"/>
      <point x="896" y="811"/>
      <point x="801" y="811" type="qcurve" smooth="yes"/>
      <point x="725" y="811"/>
      <point x="649" y="740" type="qcurve" smooth="no"/>
      <point x="720" y="669"/>
    </contour>
    <contour>
      <point x="525" y="740" type="qcurve" smooth="no"/>
      <point x="453" y="810"/>
      <point x="381" y="810" type="qcurve" smooth="yes"/>
      <point x="292" y="810"/>
      <point x="292" y="740" type="qcurve" smooth="yes"/>
      <point x="292" y="669"/>
      <point x="381" y="669" type="qcurve" smooth="yes"/>
      <point x="451" y="669"/>
    </contour>
  </outline>
</glyph>
<glyph name="lozenge" format="1">
  <advance width="1051"/>
  <unicode hex="25ca"/>
  <outline>
    <contour>
      <point x="372" y="713" type="line" smooth="no"/>
      <point x="506" y="179" type="line" smooth="no"/>
      <point x="538" y="179" type="line" smooth="no"/>
      <point x="672" y="713" type="line" smooth="no"/>
      <point x="538" y="1247" type="line" smooth="no"/>
      <point x="506" y="1247" type="line" smooth="no"/>
    </contour>
    <contour>
      <point x="97" y="713" type="line" smooth="no"/>
      <point x="280" y="1436" type="line" smooth="no"/>
      <point x="771" y="1436" type="line" smooth="no"/>
      <point x="950" y="713" type="line" smooth="no"/>
      <point x="771" y="0" type="line" smooth="no"/>
      <point x="280" y="0" type="line" smooth="no"/>
    </contour>
  </outline>
</glyph>
